<?xml version="1.0" encoding="UTF-8" standalone="yes"?>
<svg id="main_svg" xmlns="http://www.w3.org/2000/svg" width="100%" height="100%">
  <g id="svg_g_bezier_cells">
    <path d="M 563.7826823946662 0 L 670.7018727321702 119.83229959651196 L 711.9670470191179 122.2732192394239 L 779.7959613559716 57.39043169130205 L 780.3422706196634 0 L 563.7826823946662 0 Z" fill="#221155" fill-opacity="0.2" id="e5218479-f62c-4d0a-99a8-ff569c17d2aa">
      <text>2</text>
    </path>
    <path d="M 779.7959613559718 57.390431691302204 L 919.9999999999999 119.28277222122044 L 920 0 L 780.3422706196633 0 L 779.7959613559718 57.390431691302204 Z" fill="#221155" fill-opacity="0.2" id="e88e798d-eeae-459f-8e2f-dbaf837ed48e">
      <text>2</text>
    </path>
    <path d="M 105.3458811757805 0 L 122.65521122069153 147.40911127526903 L 123.9366836677886 149.73084418163933 L 253.1469812556309 205.54100262469672 L 313.4221299056623 190.86857428905805 L 313.8996697482753 0 L 105.3458811757805 0 Z" fill="#221155" fill-opacity="0.2" id="1cc0baa8-e0c5-44b1-aa74-a4d63f72646b">
      <text>2</text>
    </path>
    <path d="M 313.4221299056623 190.86857428905824 L 365.2478707365377 214.25314985132184 L 463.5085084287931 183.17247262155018 L 505.7995843517142 0 L 313.8996697482753 0 L 313.4221299056623 190.86857428905824 Z" fill="#221155" fill-opacity="0.2" id="30a28f04-7183-4e67-963e-f7b89c13d1da">
      <text>2</text>
    </path>
    <path d="M 0 148.80176667244552 L 122.65521122069121 147.40911127526624 L 105.3458811757805 0 L 0 0 L 0 148.80176667244552 Z" fill="#221155" fill-opacity="0.2" id="cf15c859-ee23-49ba-bc28-9ebee6fa8eac">
      <text>2</text>
    </path>
    <path d="M 463.5085084287931 183.17247262155033 L 552.8759732145941 224.99803535760864 L 670.70187273217 119.83229959651199 L 563.782682394666 -7.105427357600993e-15 L 505.7995843517143 0 L 463.5085084287931 183.17247262155033 Z" fill="#221155" fill-opacity="0.2" id="da63a501-9b19-4ef3-bdea-3b4b17ad10c8">
      <text>2</text>
    </path>
    <path d="M 711.967047019118 122.27321923942387 L 782.4062971684667 292.49587699335814 L 807.7074571940959 303.4243095197245 L 919.9999999999998 284.6147006433642 L 920 119.28277222122053 L 779.7959613559719 57.390431691302254 L 711.967047019118 122.27321923942387 Z" fill="#221155" fill-opacity="0.2" id="d42b5dc6-6305-4699-a402-51c3656659af">
      <text>2</text>
    </path>
    <path d="M 0 315.53357548144766 L 27.91102653395087 311.96234884072675 L 123.93668366779019 149.73084418164024 L 122.65521122069106 147.40911127526624 L 0 148.80176667244555 L 0 315.53357548144766 Z" fill="#221155" fill-opacity="0.2" id="0e462b8b-a40a-4ecf-85bc-cfb377c311de">
      <text>2</text>
    </path>
    <path d="M 552.875973214594 224.9980353576088 L 569.8522957351803 265.579100093557 L 766.6513785115161 296.6334527835607 L 782.4062971684665 292.49587699335734 L 711.967047019118 122.2732192394241 L 670.7018727321702 119.83229959651214 L 552.875973214594 224.9980353576088 Z" fill="#221155" fill-opacity="0.2" id="a99799d3-9b28-426e-b1dd-578a75149d58">
      <text>2</text>
    </path>
    <path d="M 27.91102653395087 311.9623488407267 L 171.7176919013428 405.1512624533783 L 253.14698125563092 205.54100262469674 L 123.9366836677902 149.73084418164004 L 27.91102653395087 311.9623488407267 Z" fill="#221155" fill-opacity="0.2" id="6833ffc7-4e91-460d-a50b-c77f197018a0">
      <text>2</text>
    </path>
    <path d="M 365.24787073653823 214.25314985132172 L 404.09992997134793 471.15646633676994 L 558.6499051723182 336.1651503447756 L 569.8522957351805 265.5791000935565 L 552.8759732145945 224.9980353576088 L 463.5085084287932 183.17247262155024 L 365.24787073653823 214.25314985132172 Z" fill="#221155" fill-opacity="0.2" id="f8d849f9-e782-419b-af80-8191ba88d34c">
      <text>2</text>
    </path>
    <path d="M 558.6499051723177 336.16515034477624 L 643.7392098482402 401.35113358190927 L 766.6513785115188 296.63345278356115 L 569.8522957351804 265.5791000935569 L 558.6499051723177 336.16515034477624 Z" fill="#221155" fill-opacity="0.2" id="5e37be88-d680-40f0-aa24-dc6b73cad227">
      <text>2</text>
    </path>
    <path d="M 171.71769190134273 405.15126245337837 L 200.57279425901382 480.00000000000006 L 401.3807840836709 480 L 404.0999299713489 471.15646633677676 L 365.2478707365381 214.25314985132187 L 313.42212990566213 190.86857428905805 L 253.14698125563078 205.5410026246968 L 171.71769190134273 405.15126245337837 Z" fill="#221155" fill-opacity="0.2" id="da333352-ffaf-4ce5-ab63-32318f72e5d3">
      <text>2</text>
    </path>
    <path d="M 643.7392098482404 401.35113358190915 L 652.2970758171209 480.0000000000003 L 778.6121215667154 480.00000000000017 L 807.7074571940956 303.4243095197249 L 782.4062971684657 292.49587699335837 L 766.6513785115194 296.63345278356076 L 643.7392098482404 401.35113358190915 Z" fill="#221155" fill-opacity="0.2" id="25e1d540-ff09-441c-880c-b65d94070d79">
      <text>2</text>
    </path>
    <path d="M 652.2970758171208 479.9999999999999 L 643.7392098482404 401.3511335819093 L 558.6499051723177 336.16515034477607 L 404.09992997135475 471.1564663367643 L 401.3807840836729 479.99999999999994 L 652.2970758171208 479.9999999999999 Z" fill="#221155" fill-opacity="0.2" id="69b52a01-ea8a-4896-9693-04bc0d4838c9">
      <text>2</text>
    </path>
    <path d="M 200.5727942590139 480 L 171.71769190134273 405.15126245337814 L 27.91102653395097 311.9623488407268 L 0 315.53357548144766 L 0 480 L 200.5727942590139 480 Z" fill="#221155" fill-opacity="0.2" id="671dceb8-0f45-4b5b-b137-1ce61144b81d">
      <text>2</text>
    </path>
    <path d="M 920 284.6147006433643 L 807.7074571940959 303.4243095197246 L 778.6121215667156 479.99999999999994 L 919.9999999999999 479.99999999999994 L 920 284.6147006433643 Z" fill="#221155" fill-opacity="0.2" id="25f5fbda-9924-43ab-acad-6d896bde7e5e">
      <text>2</text>
    </path>
  </g>
  <g id="svg_g_edges">
    <path id="svg_path_edges" d="M 779.7959613559717 57.390431691302275 L 780.3422706196633 0 M 313.8996697482753 0 L 313.4221299056623 190.86857428905805 M 105.3458811757805 0 L 122.6552112206912 147.4091112752662 M 563.7826823946662 -7.105427357601002e-15 L 670.7018727321702 119.83229959651203 M 505.7995843517143 0 L 463.50850842879316 183.17247262155036 M 779.7959613559717 57.390431691302275 L 920 119.28277222122053 M 779.7959613559717 57.390431691302275 L 711.967047019118 122.27321923942398 M 122.6552112206912 147.4091112752662 L 0 148.80176667244552 M 670.7018727321702 119.83229959651203 L 552.8759732145941 224.9980353576087 M 670.7018727321702 119.83229959651203 L 711.967047019118 122.27321923942398 M 711.967047019118 122.27321923942398 L 782.406297168467 292.49587699335837 M 122.6552112206912 147.4091112752662 L 123.93668366779022 149.73084418164007 M 123.93668366779022 149.73084418164007 L 253.14698125563086 205.54100262469677 M 123.93668366779022 149.73084418164007 L 27.911026533950846 311.96234884072675 M 463.50850842879316 183.17247262155036 L 552.8759732145941 224.9980353576087 M 463.50850842879316 183.17247262155036 L 365.24787073653823 214.25314985132184 M 569.8522957351804 265.57910009355686 L 766.651378511519 296.6334527835611 M 313.4221299056623 190.86857428905805 L 253.14698125563086 205.54100262469677 M 313.4221299056623 190.86857428905805 L 365.24787073653823 214.25314985132184 M 552.8759732145941 224.9980353576087 L 569.8522957351804 265.57910009355686 M 253.14698125563086 205.54100262469677 L 171.71769190134282 405.1512624533783 M 365.24787073653823 214.25314985132184 L 404.09992997134793 471.1564663367702 M 569.8522957351804 265.57910009355686 L 558.6499051723179 336.165150344776 M 766.651378511519 296.6334527835611 L 643.7392098482404 401.35113358190904 M 766.651378511519 296.6334527835611 L 782.406297168467 292.49587699335837 M 558.6499051723179 336.165150344776 L 643.7392098482404 401.35113358190904 M 558.6499051723179 336.165150344776 L 404.09992997134793 471.1564663367702 M 782.406297168467 292.49587699335837 L 807.7074571940958 303.42430951972455 M 27.911026533950846 311.96234884072675 L 171.71769190134282 405.1512624533783 M 27.911026533950846 311.96234884072675 L 0 315.5335754814476 M 807.7074571940958 303.42430951972455 L 920 284.6147006433642 M 807.7074571940958 303.42430951972455 L 778.6121215667156 480 M 643.7392098482404 401.35113358190904 L 652.2970758171208 480 M 171.71769190134282 405.1512624533783 L 200.5727942590139 480 M 404.09992997134793 471.1564663367702 L 401.38078408366795 480 M 778.6121215667156 480 L 920 480 M 920 480 L 920 284.6147006433642 M 0 315.5335754814476 L 0 480 M 0 480 L 200.5727942590139 480 M 401.38078408366795 480 L 652.2970758171208 480 M 652.2970758171208 480 L 778.6121215667156 480 M 200.5727942590139 480 L 401.38078408366795 480 M 0 148.80176667244552 L 0 315.5335754814476 M 920 284.6147006433642 L 920 119.28277222122053 M 563.7826823946662 -7.105427357601002e-15 L 505.7995843517143 0 M 105.3458811757805 0 L 0 0 M 0 0 L 0 148.80176667244552 M 505.7995843517143 0 L 313.8996697482753 0 M 313.8996697482753 0 L 105.3458811757805 0 M 920 119.28277222122053 L 920 0 M 920 0 L 780.3422706196633 0 M 780.3422706196633 0 L 563.7826823946662 0 " stroke="black" stroke-width="2"/>
  </g>
</svg>