<?xml version="1.0" encoding="iso-8859-1"?>
<!-- Generator: Adobe Illustrator 19.0.0, SVG Export Plug-In . SVG Version: 6.00 Build 0)  -->
<svg version="1.1" id="Layer_1" xmlns="http://www.w3.org/2000/svg" xmlns:xlink="http://www.w3.org/1999/xlink" x="0px" y="0px"
	 viewBox="0 0 512 512" style="enable-background:new 0 0 512 512;" xml:space="preserve">
<g>
	<g>
		<path d="M502.075,9.956c-19.625-19.624-54.304-5.007-65.7-0.204c-22.804,9.611-50.523,26.083-82.448,48.98
			c-30.174-14.515-63.463-22.188-97.937-22.188c-60.411,0-117.206,23.526-159.923,66.243
			C26.015,172.84,11.621,277.789,52.871,362.192C2.268,434.597-11.793,480.422,9.909,502.122C16.49,508.705,25.358,512,36.414,512
			c8.161,0,17.514-1.795,28.021-5.391c18.908-6.469,42.26-18.785,69.406-36.609c4.358-2.861,8.79-5.857,13.277-8.955
			c32.978,18.164,70.18,27.83,108.874,27.83c60.411,0,117.206-23.526,159.923-66.243c72.202-72.201,85.272-181.469,39.239-267.108
			c14.44-20.31,26.45-39.226,35.649-56.228C514.573,55.364,518.259,26.141,502.075,9.956z M33.6,478.348
			c-1.791-5.718,2.347-30.651,38.112-84.511c7.195,10.099,15.302,19.743,24.356,28.796c6.636,6.636,13.614,12.808,20.891,18.501
			C56.582,481.058,36.727,479.059,33.6,478.348z M145.836,420.964c-9.252-6.469-18.006-13.792-26.156-21.942
			c-75.164-75.163-75.164-197.461,0-272.624c36.41-36.409,84.82-56.462,136.312-56.462c51.492,0,99.902,20.052,136.312,56.462
			c8.564,8.564,16.139,17.744,22.752,27.392c-9.828,13.082-20.606,26.688-32.223,40.667c-7.665-3.518-16.177-5.496-25.148-5.496
			c-33.362,0-60.503,27.142-60.503,60.503c0,11.115,3.026,21.531,8.278,30.492c-4.206,4.302-8.449,8.598-12.701,12.85
			C242.712,342.853,191.466,387.499,145.836,420.964z M384.794,249.465c0,14.948-12.162,27.111-27.111,27.111
			c-14.948,0-27.111-12.162-27.111-27.111c0-14.95,12.162-27.111,27.111-27.111C372.632,222.354,384.794,234.517,384.794,249.465z
			 M392.303,399.023c-36.41,36.409-84.82,56.462-136.312,56.462c-27.459,0-54.041-5.706-78.395-16.55
			c43.801-33.225,91.689-75.432,138.773-122.517c4.43-4.429,8.849-8.906,13.23-13.388c8.399,4.422,17.951,6.939,28.085,6.939
			c33.362,0,60.503-27.142,60.503-60.503c0-12.284-3.69-23.717-10.004-33.271c8.634-10.381,16.823-20.568,24.531-30.51
			C463.351,256.206,449.881,341.444,392.303,399.023z M458.386,88.915c-6.37,11.276-14.016,23.439-22.809,36.31
			c-5.98-7.8-12.529-15.302-19.664-22.438c-9.452-9.452-19.595-17.959-30.312-25.486c22.393-15.362,42.589-27.254,59.125-34.756
			c22.551-10.232,31.475-9.322,33.591-8.837C478.922,36.411,480.217,50.274,458.386,88.915z"/>
	</g>
</g>
<g>
</g>
<g>
</g>
<g>
</g>
<g>
</g>
<g>
</g>
<g>
</g>
<g>
</g>
<g>
</g>
<g>
</g>
<g>
</g>
<g>
</g>
<g>
</g>
<g>
</g>
<g>
</g>
<g>
</g>
</svg>
