<svg>
  <g id="svg_g_bezier_cells">
    <path
      d="M 804.1385503724395 0 L 812.630063070334 131.7066405360372 L 919.9999999999999 135.02190243026075 L 920 0 L 804.1385503724395 0 Z"
      fill="#4338ca"
    />
    <path
      d="M 612.7992966202027 0 L 616.3124983027986 130.63593265377597 L 655.8741303365521 182.01288113898767 L 769.2240807141343 168.51699880027195 L 812.6300630703339 131.7066405360369 L 804.1385503724396 0 L 612.7992966202027 0 Z"
      fill="#4338ca"
    />
    <path
      d="M 426.0127510979816 0 L 447.57522999773306 86.82274995905495 L 616.3124983027985 130.6359326537758 L 612.7992966202027 0 L 426.0127510979816 0 Z"
      fill="#4338ca"
    />
    <path
      d="M 88.87062476226981 0 L 113.84838320757834 162.47609950095273 L 256.3278534555273 105.80631646959748 L 261.8528522127231 0 L 88.87062476226981 0 Z"
      fill="#4338ca"
    />
    <path
      d="M 256.3278534555274 105.80631646959752 L 338.3529636952923 183.58532947611096 L 370.66443414234357 184.94685736071145 L 447.5752299977331 86.82274995905493 L 426.01275109798166 0 L 261.8528522127231 0 L 256.3278534555274 105.80631646959752 Z"
      fill="#4338ca"
    />
    <path
      d="M 0 182.9197826036148 L 101.08114631117544 184.16808817657395 L 113.84838320757835 162.4760995009527 L 88.87062476226981 0 L 0 0 L 0 182.9197826036148 Z"
      fill="#4338ca"
    />
    <path
      d="M 370.6644341423433 184.94685736071185 L 436.1925159784282 270.1045864974152 L 591.08569599987 289.24447745289007 L 655.8741303365523 182.01288113898784 L 616.3124983027985 130.63593265377577 L 447.575229997733 86.82274995905492 L 370.6644341423433 184.94685736071185 Z"
      fill="#4338ca"
    />
    <path
      d="M 101.08114631117542 184.16808817657383 L 154.1777392307977 305.787233235505 L 221.00663787618112 314.475359634898 L 338.35296369529283 183.58532947611133 L 256.3278534555273 105.80631646959746 L 113.84838320757824 162.47609950095276 L 101.08114631117542 184.16808817657383 Z"
      fill="#4338ca"
    />
    <path
      d="M 769.2240807141346 168.51699880027158 L 834.0078236374304 333.6970319770744 L 919.9999999999999 372.11059459940185 L 920 135.0219024302608 L 812.6300630703332 131.70664053603718 L 769.2240807141346 168.51699880027158 Z"
      fill="#4338ca"
    />
    <path
      d="M 0 374.05535084983603 L 96.07508174505384 373.62155725091293 L 154.17773923079764 305.78723323550497 L 101.08114631117543 184.16808817657395 L 0 182.91978260361478 L 0 374.05535084983603 Z"
      fill="#4338ca"
    />
    <path
      d="M 221.00663787618123 314.4753596348979 L 339.82586696257715 443.19140440118275 L 436.19251597842816 270.1045864974153 L 370.6644341423431 184.9468573607118 L 338.352963695293 183.58532947611133 L 221.00663787618123 314.4753596348979 Z"
      fill="#4338ca"
    />
    <path
      d="M 591.0856959998698 289.24447745288995 L 602.0942370259244 364.6693670858744 L 753.7358245040427 406.72771352784355 L 834.0078236374302 333.69703197707423 L 769.2240807141347 168.5169988002718 L 655.8741303365521 182.0128811389875 L 591.0856959998698 289.24447745288995 Z"
      fill="#4338ca"
    />
    <path
      d="M 339.8258669625763 443.1914044011843 L 347.9096525454521 479.99999999999983 L 555.694768015706 479.99999999999994 L 602.0942370259244 364.6693670858747 L 591.0856959998698 289.24447745289 L 436.19251597842845 270.10458649741526 L 339.8258669625763 443.1914044011843 Z"
      fill="#4338ca"
    />
    <path
      d="M 96.07508174505381 373.6215572509128 L 118.37043521052728 480.00000000000006 L 347.909652545453 480.00000000000006 L 339.8258669625766 443.1914044011821 L 221.00663787618126 314.4753596348979 L 154.1777392307976 305.78723323550497 L 96.07508174505381 373.6215572509128 Z"
      fill="#4338ca"
    />
    <path
      d="M 753.7358245040418 406.72771352784434 L 770.4563238781833 480.0000000000002 L 920.0000000000002 480.0000000000002 L 920.0000000000003 372.1105945994023 L 834.0078236374303 333.6970319770745 L 753.7358245040418 406.72771352784434 Z"
      fill="#4338ca"
    />
    <path
      d="M 770.4563238781839 479.9999999999999 L 753.7358245040425 406.7277135278435 L 602.0942370259246 364.66936708587446 L 555.6947680157061 479.99999999999983 L 770.4563238781839 479.9999999999999 Z"
      fill="#4338ca"
    />
    <path
      d="M 118.37043521052726 480.00000000000006 L 96.07508174505381 373.6215572509129 L 0 374.05535084983615 L 0 480 L 118.37043521052726 480.00000000000006 Z"
      fill="#4338ca"
    />
  </g>

</svg>
