<svg id="main_svg" xmlns="http://www.w3.org/2000/svg" width="100%" height="100%"><g id="svg_g_bezier_cells"><path d="M 410.4464820027533 0 L 411.0011523848265 13.830924470514743 L 525.8255581404754 87.54351631469999 L 616.7494364335665 59.38208052372815 L 638.7347919789278 0 L 410.4464820027533 0 Z" fill="#221155" fillOpacity="0.2"/><path d="M 96.68606322410743 0 L 154.35282145223448 88.6836247652517 L 249.27681365998706 57.97070538258972 L 253.21201098194376 0 L 96.68606322410743 0 Z" fill="#221155" fillOpacity="0.2"/><path d="M 249.27681365998703 57.970705382589706 L 340.3158275851702 107.97975617555873 L 411.0011523848265 13.830924470514907 L 410.44648200275327 0 L 253.2120109819437 0 L 249.27681365998703 57.970705382589706 Z" fill="#221155" fillOpacity="0.2"/><path d="M 616.7494364335663 59.382080523728305 L 660.0059020892562 147.73197037250608 L 751.562948742223 143.01977977718568 L 849.0360915048407 0 L 638.7347919789278 0 L 616.7494364335663 59.382080523728305 Z" fill="#221155" fillOpacity="0.2"/><path d="M 0 178.74645427137278 L 63.31317524892319 179.64225226987568 L 145.77603658830935 129.46515352315217 L 154.35282145223454 88.68362476525171 L 96.68606322410743 0 L 0 0 L 0 178.74645427137278 Z" fill="#221155" fillOpacity="0.2"/><path d="M 340.3158275851701 107.9797561755589 L 345.81827625519554 164.32449358333227 L 441.8301652669998 228.961006779611 L 471.6401107812435 213.7237948516657 L 525.8255581404756 87.54351631469996 L 411.0011523848265 13.83092447051485 L 340.3158275851701 107.9797561755589 Z" fill="#221155" fillOpacity="0.2"/><path d="M 855.5780617849481 0 L 874.7834018808011 226.60427351621848 L 920.0000000000001 227.30311268832577 L 919.9999999999999 0 L 855.5780617849481 0 Z" fill="#221155" fillOpacity="0.2"/><path d="M 145.77603658830932 129.4651535231522 L 223.39651073182716 217.4242290940623 L 256.2128978320528 223.96804403407575 L 345.8182762551956 164.3244935833323 L 340.3158275851701 107.97975617555876 L 249.27681365998703 57.970705382589706 L 154.35282145223448 88.68362476525172 L 145.77603658830932 129.4651535231522 Z" fill="#221155" fillOpacity="0.2"/><path d="M 751.5629487422232 143.01977977718556 L 839.7102348950646 245.805178870867 L 874.7834018808007 226.60427351621797 L 855.5780617849481 0 L 849.0360915048406 0 L 751.5629487422232 143.01977977718556 Z" fill="#221155" fillOpacity="0.2"/><path d="M 471.64011078124383 213.72379485166505 L 624.2264707229264 245.67231581433197 L 638.3047128910644 240.9208564989528 L 660.0059020892564 147.73197037250648 L 616.7494364335664 59.382080523728206 L 525.8255581404758 87.5435163146999 L 471.64011078124383 213.72379485166505 Z" fill="#221155" fillOpacity="0.2"/><path d="M 638.3047128910646 240.9208564989515 L 689.4037416314933 281.5555652452716 L 819.462810795538 276.06621926041527 L 839.7102348950657 245.8051788708682 L 751.562948742223 143.01977977718562 L 660.0059020892563 147.73197037250597 L 638.3047128910646 240.9208564989515 Z" fill="#221155" fillOpacity="0.2"/><path d="M 63.313175248923265 179.64225226987566 L 121.05087087088333 292.5536086119017 L 136.44406012645095 293.85556001666674 L 223.39651073182682 217.42422909406199 L 145.77603658830927 129.4651535231522 L 63.313175248923265 179.64225226987566 Z" fill="#221155" fillOpacity="0.2"/><path d="M 0 353.361252473701 L 28.07221169579294 358.1332576926174 L 121.05087087088354 292.55360861190223 L 63.31317524892328 179.64225226987566 L 7.105427357601002e-15 178.74645427137276 L 0 353.361252473701 Z" fill="#221155" fillOpacity="0.2"/><path d="M 256.2128978320531 223.9680440340756 L 284.90903869886546 354.014925766419 L 389.71205276526064 379.46087126195414 L 429.1484059950914 346.412226884717 L 441.83016526699936 228.96100677961078 L 345.8182762551957 164.32449358333236 L 256.2128978320531 223.9680440340756 Z" fill="#221155" fillOpacity="0.2"/><path d="M 429.14840599509114 346.41222688471703 L 544.7915891325207 385.8150353770386 L 624.2264707229235 245.6723158143314 L 471.64011078124406 213.72379485166513 L 441.83016526699913 228.96100677961113 L 429.14840599509114 346.41222688471703 Z" fill="#221155" fillOpacity="0.2"/><path d="M 136.4440601264505 293.855560016667 L 213.3493048936513 396.38185136514215 L 284.9090386988654 354.014925766419 L 256.2128978320531 223.96804403407563 L 223.39651073182662 217.424229094062 L 136.4440601264505 293.855560016667 Z" fill="#221155" fillOpacity="0.2"/><path d="M 819.462810795537 276.06621926041635 L 839.1416779273646 390.2944238318446 L 919.9999999999999 400.1419596933022 L 920 227.30311268832594 L 874.7834018807998 226.6042735162185 L 839.7102348950666 245.8051788708659 L 819.462810795537 276.06621926041635 Z" fill="#221155" fillOpacity="0.2"/><path d="M 544.7915891325222 385.8150353770361 L 550.5438453323649 393.53098730850894 L 681.7250487556112 405.4716296735915 L 689.4037416314931 281.5555652452716 L 638.3047128910657 240.92085649895236 L 624.2264707229227 245.67231581433327 L 544.7915891325222 385.8150353770361 Z" fill="#221155" fillOpacity="0.2"/><path d="M 681.7250487556113 405.47162967359037 L 739.7245045253609 479.9999999999995 L 769.3894256600616 479.99999999999955 L 839.1416779273646 390.2944238318447 L 819.462810795537 276.0662192604153 L 689.4037416314935 281.5555652452717 L 681.7250487556113 405.47162967359037 Z" fill="#221155" fillOpacity="0.2"/><path d="M 28.072211695793012 358.1332576926174 L 138.23875038724864 480.0000000000004 L 171.109262242081 480.00000000000034 L 213.3493048936513 396.38185136514227 L 136.44406012645047 293.8555600166671 L 121.05087087088357 292.5536086119021 L 28.072211695793012 358.1332576926174 Z" fill="#221155" fillOpacity="0.2"/><path d="M 387.37245307006935 480.0000000000001 L 389.71205276526024 379.4608712619541 L 284.9090386988654 354.01492576641914 L 213.34930489365127 396.3818513651423 L 171.10926224208103 480.00000000000017 L 387.37245307006935 480.0000000000001 Z" fill="#221155" fillOpacity="0.2"/><path d="M 549.6720747698615 479.9999999999999 L 550.543845332361 393.5309873085073 L 544.7915891325217 385.81503537703884 L 429.1484059950912 346.41222688471686 L 389.71205276526024 379.4608712619542 L 387.3724530700692 479.9999999999999 L 549.6720747698615 479.9999999999999 Z" fill="#221155" fillOpacity="0.2"/><path d="M 739.7245045253609 480.0000000000002 L 681.7250487556115 405.4716296735916 L 550.543845332361 393.5309873085087 L 549.6720747698613 480.0000000000002 L 739.7245045253609 480.0000000000002 Z" fill="#221155" fillOpacity="0.2"/><path d="M 138.23875038724833 480 L 28.072211695793175 358.1332576926174 L 0 353.361252473701 L 0 479.99999999999983 L 138.23875038724833 480 Z" fill="#221155" fillOpacity="0.2"/><path d="M 920.0000000000006 400.14195969330234 L 839.1416779273645 390.2944238318445 L 769.3894256600606 480.0000000000002 L 920.0000000000007 480.0000000000003 L 920.0000000000006 400.14195969330234 Z" fill="#221155" fillOpacity="0.2"/></g><g id="svg_g_edges"><path id="svg_path_edges" d="M 253.21201098194376 0 L 249.27681365998706 57.970705382589706 M 410.4464820027533 0 L 411.0011523848265 13.830924470514782 M 638.7347919789278 0 L 616.7494364335665 59.38208052372824 M 154.35282145223448 88.6836247652517 L 96.68606322410743 0 M 411.0011523848265 13.830924470514782 L 525.8255581404756 87.54351631470001 M 411.0011523848265 13.830924470514782 L 340.3158275851701 107.97975617555872 M 249.27681365998706 57.970705382589706 L 154.35282145223448 88.6836247652517 M 249.27681365998706 57.970705382589706 L 340.3158275851701 107.97975617555872 M 849.0360915048406 0 L 751.5629487422232 143.0197797771856 M 855.5780617849481 0 L 874.7834018808009 226.60427351621848 M 525.8255581404756 87.54351631470001 L 616.7494364335665 59.38208052372824 M 525.8255581404756 87.54351631470001 L 471.6401107812438 213.72379485166516 M 616.7494364335665 59.38208052372824 L 660.0059020892563 147.73197037250597 M 154.35282145223448 88.6836247652517 L 145.77603658830932 129.46515352315222 M 751.5629487422232 143.0197797771856 L 660.0059020892563 147.73197037250597 M 751.5629487422232 143.0197797771856 L 839.7102348950649 245.8051788708673 M 340.3158275851701 107.97975617555872 L 345.8182762551956 164.32449358333236 M 145.77603658830932 129.46515352315222 L 63.313175248923265 179.64225226987566 M 145.77603658830932 129.46515352315222 L 223.39651073182688 217.42422909406199 M 660.0059020892563 147.73197037250597 L 638.3047128910645 240.9208564989513 M 63.313175248923265 179.64225226987566 L 7.105427357601002e-15 178.74645427137278 M 63.313175248923265 179.64225226987566 L 121.05087087088351 292.5536086119022 M 345.8182762551956 164.32449358333236 L 256.21289783205316 223.96804403407555 M 345.8182762551956 164.32449358333236 L 441.8301652669994 228.96100677961084 M 471.6401107812438 213.72379485166516 L 624.2264707229234 245.67231581433148 M 223.39651073182688 217.42422909406199 L 136.44406012645052 293.85556001666714 M 223.39651073182688 217.42422909406199 L 256.21289783205316 223.96804403407555 M 256.21289783205316 223.96804403407555 L 284.9090386988655 354.0149257664191 M 471.6401107812438 213.72379485166516 L 441.8301652669994 228.96100677961084 M 874.7834018808009 226.60427351621848 L 920 227.3031126883258 M 874.7834018808009 226.60427351621848 L 839.7102348950649 245.8051788708673 M 441.8301652669994 228.96100677961084 L 429.1484059950913 346.4122268847169 M 624.2264707229234 245.67231581433148 L 638.3047128910645 240.9208564989513 M 624.2264707229234 245.67231581433148 L 544.7915891325206 385.8150353770385 M 638.3047128910645 240.9208564989513 L 689.4037416314932 281.55556524527157 M 689.4037416314932 281.55556524527157 L 819.4628107955369 276.0662192604152 M 839.7102348950649 245.8051788708673 L 819.4628107955369 276.0662192604152 M 121.05087087088351 292.5536086119022 L 136.44406012645052 293.85556001666714 M 121.05087087088351 292.5536086119022 L 28.072211695793 358.1332576926174 M 136.44406012645052 293.85556001666714 L 213.34930489365127 396.38185136514215 M 689.4037416314932 281.55556524527157 L 681.725048755611 405.47162967359156 M 819.4628107955369 276.0662192604152 L 839.1416779273645 390.29442383184465 M 284.9090386988655 354.0149257664191 L 389.71205276526047 379.46087126195414 M 284.9090386988655 354.0149257664191 L 213.34930489365127 396.38185136514215 M 429.1484059950913 346.4122268847169 L 544.7915891325206 385.8150353770385 M 550.5438453323613 393.5309873085087 L 681.725048755611 405.47162967359156 M 28.072211695793 358.1332576926174 L 0 353.3612524737009 M 28.072211695793 358.1332576926174 L 138.2387503872483 480 M 429.1484059950913 346.4122268847169 L 389.71205276526047 379.46087126195414 M 839.1416779273645 390.29442383184465 L 920 400.1419596933023 M 544.7915891325206 385.8150353770385 L 550.5438453323613 393.5309873085087 M 550.5438453323613 393.5309873085087 L 549.6720747698618 480 M 681.725048755611 405.47162967359156 L 739.7245045253603 480 M 213.34930489365127 396.38185136514215 L 171.10926224208112 480 M 839.1416779273645 390.29442383184465 L 769.3894256600611 480 M 389.71205276526047 379.46087126195414 L 387.3724530700694 480 M 769.3894256600611 480 L 920 480 M 920 480 L 920 400.1419596933023 M 0 353.3612524737009 L 0 480 M 0 480 L 138.2387503872483 480 M 549.6720747698618 480 L 739.7245045253603 480 M 387.3724530700694 480 L 549.6720747698618 480 M 171.10926224208112 480 L 387.3724530700694 480 M 138.2387503872483 480 L 171.10926224208112 480 M 739.7245045253603 480 L 769.3894256600611 480 M 920 400.1419596933023 L 920 227.3031126883258 M 7.105427357601002e-15 178.74645427137278 L 0 353.3612524737009 M 855.5780617849481 0 L 849.0360915048406 0 M 920 227.3031126883258 L 920 0 M 920 0 L 855.5780617849481 0 M 96.68606322410743 0 L 0 0 M 0 0 L 0 178.74645427137278 M 849.0360915048406 0 L 638.7347919789278 0 M 410.4464820027533 0 L 253.21201098194376 0 M 253.21201098194376 0 L 96.68606322410743 0 M 638.7347919789278 0 L 410.4464820027533 0 " stroke="black" strokeWidth="2"/></g><g id="svg_g_seeds"><circle id="c_0" cx="731.8940929769992" cy="82.68060948554321" r="3" stroke="black" strokeWidth="2" fill="#1F7BFD"/><circle id="c_1" cx="125.10282173183656" cy="363.291627124097" r="3" stroke="black" strokeWidth="2" fill="#1F7BFD"/><circle id="c_2" cx="616.0987782725715" cy="453.56563564503523" r="3" stroke="black" strokeWidth="2" fill="#1F7BFD"/><circle id="c_3" cx="307.19873812578925" cy="10.381561653859563" r="3" stroke="black" strokeWidth="2" fill="#1F7BFD"/><circle id="c_4" cx="916.1047681884154" cy="324.0990243308594" r="3" stroke="black" strokeWidth="2" fill="#1F7BFD"/><circle id="c_5" cx="334.51645121830654" cy="274.10409930392296" r="3" stroke="black" strokeWidth="2" fill="#1F7BFD"/><circle id="c_6" cx="58.19250240382939" cy="94.1071168235434" r="3" stroke="black" strokeWidth="2" fill="#1F7BFD"/><circle id="c_7" cx="443.27835555549774" cy="112.54779975192204" r="3" stroke="black" strokeWidth="2" fill="#1F7BFD"/><circle id="c_8" cx="537.034196303913" cy="295.97089037826845" r="3" stroke="black" strokeWidth="2" fill="#1F7BFD"/><circle id="c_9" cx="919.0979470150994" cy="130.4330572429634" r="3" stroke="black" strokeWidth="2" fill="#1F7BFD"/><circle id="c_10" cx="292.3491049978679" cy="447.77675689326736" r="3" stroke="black" strokeWidth="2" fill="#1F7BFD"/><circle id="c_11" cx="240.18239811274233" cy="132.3815079619858" r="3" stroke="black" strokeWidth="2" fill="#1F7BFD"/><circle id="c_12" cx="897.9671748681902" cy="473.0271808709438" r="3" stroke="black" strokeWidth="2" fill="#1F7BFD"/><circle id="c_13" cx="744.4648771189095" cy="353.66859187812855" r="3" stroke="black" strokeWidth="2" fill="#1F7BFD"/><circle id="c_14" cx="55.77461769013415" cy="264.99827628776035" r="3" stroke="black" strokeWidth="2" fill="#1F7BFD"/><circle id="c_15" cx="564.5365296508021" cy="164.61955363850777" r="3" stroke="black" strokeWidth="2" fill="#1F7BFD"/><circle id="c_16" cx="136.92626839447826" cy="223.50103934558865" r="3" stroke="black" strokeWidth="2" fill="#1F7BFD"/><circle id="c_17" cx="738.1925937412992" cy="205.05938781710046" r="3" stroke="black" strokeWidth="2" fill="#1F7BFD"/><circle id="c_18" cx="23.44375908681421" cy="455.19058861411355" r="3" stroke="black" strokeWidth="2" fill="#1F7BFD"/><circle id="c_19" cx="483.79183591948174" cy="452.23173238920333" r="3" stroke="black" strokeWidth="2" fill="#1F7BFD"/><circle id="c_20" cx="198.31755917933205" cy="2.9904333076747847" r="3" stroke="black" strokeWidth="2" fill="#1F7BFD"/><circle id="c_21" cx="514.1939918236186" cy="2.0802990231021568" r="3" stroke="black" strokeWidth="2" fill="#1F7BFD"/><circle id="c_22" cx="206.2793548422155" cy="302.400892990473" r="3" stroke="black" strokeWidth="2" fill="#1F7BFD"/><circle id="c_23" cx="625.8607937166307" cy="346.3190659351188" r="3" stroke="black" strokeWidth="2" fill="#1F7BFD"/><circle id="c_24" cx="814.9156474230526" cy="139.262795820202" r="3" stroke="black" strokeWidth="2" fill="#1F7BFD"/></g></svg>
