<svg id="main_svg" xmlns="http://www.w3.org/2000/svg" ><path d="M 752.4956122447512 0 L 789.2997287875787 69.74131538207408 " stroke="blue" stroke-width="2"/><path d="M 789.2997287875787 69.74131538207408 L 797.314223076004 73.0050816679327 " stroke="blue" stroke-width="2"/><path d="M 797.314223076004 73.0050816679327 L 867.2903543120885 27.11719054165203 " stroke="blue" stroke-width="2"/><path d="M 867.2903543120885 27.11719054165203 L 874.2254485979054 0 " stroke="blue" stroke-width="2"/><path d="M 874.2254485979054 0 L 752.4956122447512 0 " stroke="blue" stroke-width="2"/><text x="752.4956122447512" y="0">0</text><text x="789.2997287875785" y="69.7413153820742">1</text><text x="797.3142230760038" y="73.0050816679328">2</text><text x="867.2903543120887" y="27.117190541652025">3</text><text x="874.2254485979056" y="0">4</text><g id="svg_g_bezier_cells"><path d="M 752.4956122447512 0 L 789.2997287875785 69.7413153820742 L 797.3142230760038 73.0050816679328 L 867.2903543120887 27.117190541652025 L 874.2254485979056 0 L 752.4956122447512 0 Z" fill="#221155" fill-opacity="0.2"/><path d="M 312.4578730947996 0 L 325.1207167818635 50.88723925091412 L 406.09743869267595 27.574981922096764 L 406.5731932468081 0 L 312.4578730947996 0 Z" fill="#221155" fill-opacity="0.2"/><path d="M 406.09743869267595 27.574981922096665 L 449.7692663838526 90.99280681702412 L 485.46463429016364 73.34172111691346 L 515.465257393517 0 L 406.5731932468081 0 L 406.09743869267595 27.574981922096665 Z" fill="#221155" fill-opacity="0.2"/><path d="M 590.6167336869643 0 L 602.8129846324499 48.55767108573006 L 655.0963500581032 74.77608955435917 L 663.5831305965798 72.85139561329105 L 705.9782207354456 0 L 590.6167336869643 0 Z" fill="#221155" fill-opacity="0.2"/><path d="M 867.2903543120883 27.11719054165192 L 920.0000000000002 72.71996455578564 L 920.0000000000002 0 L 874.2254485979051 0 L 867.2903543120883 27.11719054165192 Z" fill="#221155" fill-opacity="0.2"/><path d="M 68.67732652283576 0 L 73.83165387899905 82.7932275033259 L 120.12163919086201 69.72007569498739 L 143.5334024309234 0 L 68.67732652283576 0 Z" fill="#221155" fill-opacity="0.2"/><path d="M 213.8870546759079 0 L 226.77199098783697 88.36974448185929 L 316.53019630053217 69.76838522124194 L 325.1207167818635 50.88723925091416 L 312.4578730947996 0 L 213.8870546759079 0 Z" fill="#221155" fill-opacity="0.2"/><path d="M 0 141.1687190425542 L 25.58963724581545 135.39955857370126 L 73.83165387899902 82.79322750332594 L 68.67732652283576 0 L 0 0 L 0 141.1687190425542 Z" fill="#221155" fill-opacity="0.2"/><path d="M 120.12163919086203 69.72007569498736 L 201.31395722966758 105.76605823414864 L 220.38300566790411 99.99465211563638 L 226.77199098783697 88.36974448185937 L 213.88705467590793 0 L 143.53340243092336 0 L 120.12163919086203 69.72007569498736 Z" fill="#221155" fill-opacity="0.2"/><path d="M 485.46463429016353 73.34172111691369 L 558.3801598718907 99.46983030272665 L 602.8129846324498 48.55767108573003 L 590.6167336869642 0 L 515.4652573935169 0 L 485.46463429016353 73.34172111691369 Z" fill="#221155" fill-opacity="0.2"/><path d="M 663.5831305965802 72.85139561329048 L 724.2048191063365 110.82780186503257 L 789.2997287875788 69.74131538207413 L 752.4956122447512 0 L 705.9782207354456 0 L 663.5831305965802 72.85139561329048 Z" fill="#221155" fill-opacity="0.2"/><path d="M 316.5301963005322 69.76838522124199 L 360.6803590125163 131.3518586953175 L 391.29186915660773 134.76565486008008 L 440.1793302960309 113.3751195228964 L 449.7692663838529 90.99280681702452 L 406.097438692676 27.574981922096768 L 325.12071678186356 50.88723925091414 L 316.5301963005322 69.76838522124199 Z" fill="#221155" fill-opacity="0.2"/><path d="M 797.3142230760039 73.00508166793283 L 821.8959025770583 113.62596159338682 L 878.4232255986863 134.49404539948358 L 919.9999999999998 120.12986103486165 L 919.9999999999997 72.71996455578535 L 867.2903543120885 27.117190541652064 L 797.3142230760039 73.00508166793283 Z" fill="#221155" fill-opacity="0.2"/><path d="M 558.3801598718909 99.4698303027263 L 567.9337442282464 128.29582051241695 L 625.3824216521137 161.35804055083355 L 655.0963500581026 74.77608955435888 L 602.8129846324499 48.55767108573002 L 558.3801598718909 99.4698303027263 Z" fill="#221155" fill-opacity="0.2"/><path d="M 25.589637245815442 135.39955857370128 L 55.34107484014108 148.25864546572393 L 160.52926010023052 150.6575460006422 L 201.31395722966766 105.76605823414864 L 120.12163919086201 69.72007569498737 L 73.83165387899906 82.7932275033259 L 25.589637245815442 135.39955857370128 Z" fill="#221155" fill-opacity="0.2"/><path d="M 220.38300566790403 99.99465211563634 L 255.213266466842 161.43546429306397 L 308.1014552240241 175.4675817057099 L 360.68035901251636 131.35185869531747 L 316.53019630053217 69.76838522124196 L 226.77199098783674 88.36974448185933 L 220.38300566790403 99.99465211563634 Z" fill="#221155" fill-opacity="0.2"/><path d="M 625.3824216521131 161.35804055083557 L 626.5325828216091 163.6142110217615 L 709.4487430995941 184.66931150570127 L 724.2048191063361 110.82780186503237 L 663.5831305965812 72.85139561329105 L 655.0963500581024 74.77608955435967 L 625.3824216521131 161.35804055083557 Z" fill="#221155" fill-opacity="0.2"/><path d="M 440.17933029603046 113.37511952289678 L 498.0709690800003 203.1279963423827 L 567.9337442282462 128.29582051241653 L 558.3801598718909 99.46983030272656 L 485.4646342901636 73.3417211169136 L 449.7692663838527 90.99280681702422 L 440.17933029603046 113.37511952289678 Z" fill="#221155" fill-opacity="0.2"/><path d="M 709.4487430995941 184.6693115057011 L 726.1008551709375 209.5390451399179 L 777.4266386091344 212.6106053217994 L 821.895902577058 113.62596159338672 L 797.3142230760038 73.0050816679327 L 789.2997287875785 69.74131538207412 L 724.204819106336 110.82780186503263 L 709.4487430995941 184.6693115057011 Z" fill="#221155" fill-opacity="0.2"/><path d="M 777.4266386091343 212.61060532179977 L 818.2134312591423 243.1027842239684 L 867.6810429122723 230.29150091998505 L 878.423225598687 134.49404539948378 L 821.8959025770581 113.62596159338659 L 777.4266386091343 212.61060532179977 Z" fill="#221155" fill-opacity="0.2"/><path d="M 498.07096907999755 203.12799634238584 L 498.6849689364318 209.17666085407635 L 595.8081808475671 222.522327113522 L 626.532582821614 163.61421102175765 L 625.382421652121 161.35804055083787 L 567.9337442282458 128.29582051241675 L 498.07096907999755 203.12799634238584 Z" fill="#221155" fill-opacity="0.2"/><path d="M 160.52926010023054 150.65754600064216 L 167.93452248030883 241.82021473188533 L 192.21792119555153 249.9469566088419 L 215.55927409375852 240.215994468187 L 255.21326646684187 161.4354642930639 L 220.3830056679041 99.99465211563648 L 201.31395722966747 105.76605823414873 L 160.52926010023054 150.65754600064216 Z" fill="#221155" fill-opacity="0.2"/><path d="M 867.6810429122721 230.29150091998505 L 919.9999999999995 249.6300787193043 L 919.9999999999995 120.12986103486186 L 878.4232255986867 134.49404539948358 L 867.6810429122721 230.29150091998505 Z" fill="#221155" fill-opacity="0.2"/><path d="M 55.34107484014106 148.2586454657239 L 140.8918617774191 247.98610717284495 L 167.93452248030897 241.82021473188556 L 160.52926010023054 150.6575460006422 L 55.34107484014106 148.2586454657239 Z" fill="#221155" fill-opacity="0.2"/><path d="M 391.2918691566082 134.76565486007988 L 392.50025026603146 220.1773854138709 L 491.3862736499193 223.82421766639368 L 498.68496893643294 209.17666085407927 L 498.0709690799977 203.12799634237842 L 440.1793302960304 113.3751195228967 L 391.2918691566082 134.76565486007988 Z" fill="#221155" fill-opacity="0.2"/><path d="M 308.10145522402405 175.46758170571 L 322.3907062583435 227.00339864513865 L 380.81704231572775 233.57599403244598 L 392.5002502660315 220.17738541387186 L 391.29186915660824 134.76565486008002 L 360.68035901251653 131.35185869531736 L 308.10145522402405 175.46758170571 Z" fill="#221155" fill-opacity="0.2"/><path d="M 215.55927409375857 240.215994468187 L 295.2628282231657 267.52175232646863 L 322.3907062583435 227.0033986451388 L 308.10145522402394 175.46758170570976 L 255.2132664668419 161.43546429306386 L 215.55927409375857 240.215994468187 Z" fill="#221155" fill-opacity="0.2"/><path d="M 595.8081808475671 222.52232711352192 L 614.5037739859108 270.1242986004706 L 684.3288835434928 285.36228138279915 L 726.1008551709375 209.5390451399173 L 709.4487430995949 184.66931150570144 L 626.5325828216115 163.61421102176212 L 595.8081808475671 222.52232711352192 Z" fill="#221155" fill-opacity="0.2"/><path d="M 0 220.8162076899133 L 93.27923972966327 289.0814218882994 L 140.89186177741917 247.986107172845 L 55.34107484014103 148.2586454657239 L 25.58963724581544 135.39955857370128 L 0 141.16871904255416 L 0 220.8162076899133 Z" fill="#221155" fill-opacity="0.2"/><path d="M 380.8170423157271 233.57599403244689 L 395.69362819287664 295.9527342033876 L 472.2003977368172 271.28356938416425 L 490.41064279176675 241.81820462874228 L 491.3862736499208 223.82421766639365 L 392.50025026603254 220.17738541387098 L 380.8170423157271 233.57599403244689 Z" fill="#221155" fill-opacity="0.2"/><path d="M 490.41064279176607 241.81820462874123 L 568.5244247162789 312.11199108799724 L 571.3541197139708 311.7679021549082 L 614.5037739859104 270.12429860047024 L 595.8081808475666 222.52232711352184 L 498.6849689364346 209.17666085407672 L 491.3862736499199 223.82421766639308 L 490.41064279176607 241.81820462874123 Z" fill="#221155" fill-opacity="0.2"/><path d="M 295.2628282231654 267.52175232646886 L 298.8576045688005 281.24968755500515 L 370.6807192343493 318.84105228266776 L 388.45569310256076 309.9580570854528 L 395.6936281928765 295.95273420338606 L 380.81704231572695 233.57599403244575 L 322.3907062583438 227.0033986451386 L 295.2628282231654 267.52175232646886 Z" fill="#221155" fill-opacity="0.2"/><path d="M 684.328883543493 285.3622813827995 L 700.8708253849601 330.9671205496578 L 754.6115061252399 349.5628689605635 L 806.6733820439824 342.86187395019033 L 818.2134312591431 243.10278422396826 L 777.426638609135 212.61060532179945 L 726.1008551709374 209.53904513991796 L 684.328883543493 285.3622813827995 Z" fill="#221155" fill-opacity="0.2"/><path d="M 806.6733820439824 342.8618739501932 L 819.239099238376 352.5306584161618 L 901.0929117951432 361.70982510371556 L 920.0000000000001 356.282831851541 L 920.0000000000005 249.6300787193044 L 867.6810429122736 230.2915009199855 L 818.2134312591434 243.10278422396897 L 806.6733820439824 342.8618739501932 Z" fill="#221155" fill-opacity="0.2"/><path d="M 192.21792119555124 249.94695660884193 L 207.97247330846545 339.82687392256935 L 209.68612014054077 342.00244857351123 L 268.520259085337 338.9909907576407 L 298.85760456880075 281.24968755500595 L 295.2628282231654 267.5217523264685 L 215.55927409375863 240.21599446818698 L 192.21792119555124 249.94695660884193 Z" fill="#221155" fill-opacity="0.2"/><path d="M 0 370.62137095741605 L 89.39704143212208 324.66069796874075 L 93.2792397296633 289.0814218882994 L 0 220.8162076899133 L 0 370.62137095741605 Z" fill="#221155" fill-opacity="0.2"/><path d="M 472.20039773681697 271.28356938416465 L 480.6946210916749 321.5637552926927 L 526.2140360628355 350.18873161555405 L 568.5244247162748 312.11199108799394 L 490.4106427917668 241.8182046287422 L 472.20039773681697 271.28356938416465 Z" fill="#221155" fill-opacity="0.2"/><path d="M 89.39704143212204 324.6606979687405 L 103.52264390666028 338.62256226283745 L 207.97247330846525 339.8268739225681 L 192.21792119555127 249.94695660884176 L 167.93452248030906 241.82021473188536 L 140.89186177741914 247.9861071728448 L 93.27923972966326 289.0814218882995 L 89.39704143212204 324.6606979687405 Z" fill="#221155" fill-opacity="0.2"/><path d="M 388.4556931025612 309.95805708545265 L 439.12756231106295 357.18688173222336 L 480.6946210916746 321.5637552926912 L 472.2003977368168 271.2835693841644 L 395.69362819287556 295.9527342033879 L 388.4556931025612 309.95805708545265 Z" fill="#221155" fill-opacity="0.2"/><path d="M 571.3541197139754 311.7679021549034 L 627.1384832444195 391.20959120510685 L 653.4977794178409 386.58279887950226 L 700.8708253849597 330.9671205496582 L 684.3288835434925 285.3622813827989 L 614.50377398591 270.1242986004701 L 571.3541197139754 311.7679021549034 Z" fill="#221155" fill-opacity="0.2"/><path d="M 268.5202590853373 338.9909907576407 L 317.2596994087049 397.30178969446644 L 341.05476214789724 388.7879823596329 L 370.6807192343498 318.84105228266804 L 298.85760456880104 281.24968755500544 L 268.5202590853373 338.9909907576407 Z" fill="#221155" fill-opacity="0.2"/><path d="M 439.1275623110631 357.186881732223 L 445.45259440000143 417.79096403265766 L 494.8098082459419 419.2456029369465 L 521.7368309222218 387.46123100873484 L 526.2140360628355 350.18873161555376 L 480.6946210916737 321.5637552926918 L 439.1275623110631 357.186881732223 Z" fill="#221155" fill-opacity="0.2"/><path d="M 341.05476214789786 388.78798235963217 L 426.75563615791344 430.43409355208667 L 445.45259440000103 417.790964032657 L 439.12756231106283 357.1868817322231 L 388.45569310256167 309.95805708545294 L 370.6807192343502 318.84105228266776 L 341.05476214789786 388.78798235963217 Z" fill="#221155" fill-opacity="0.2"/><path d="M 103.52264390666001 338.62256226283745 L 121.24299517595405 398.71753828131955 L 192.17398606149132 438.8921377269916 L 209.68612014054196 342.0024485735083 L 207.97247330846795 339.826873922568 L 103.52264390666001 338.62256226283745 Z" fill="#221155" fill-opacity="0.2"/><path d="M 521.7368309222217 387.46123100873416 L 611.6774443998291 405.7272208613846 L 627.1384832444196 391.2095912051073 L 571.3541197139798 311.76790215490996 L 568.5244247162666 312.1119910880017 L 526.2140360628352 350.1887316155546 L 521.7368309222217 387.46123100873416 Z" fill="#221155" fill-opacity="0.2"/><path d="M 192.17398606149354 438.89213772697883 L 192.4033519058274 439.44580603522866 L 296.9084539321701 431.63179881984433 L 317.2596994087047 397.30178969446615 L 268.5202590853371 338.99099075764053 L 209.68612014054128 342.00244857351095 L 192.17398606149354 438.89213772697883 Z" fill="#221155" fill-opacity="0.2"/><path d="M 0 378.48330584422 L 69.8053217834755 433.5327299397045 L 121.24299517595398 398.71753828131926 L 103.52264390665992 338.62256226283716 L 89.39704143212225 324.6606979687408 L 0 370.62137095741605 L 0 378.48330584422 Z" fill="#221155" fill-opacity="0.2"/><path d="M 653.4977794178407 386.5827988795028 L 706.524015745419 467.3867193940909 L 737.0371641407925 459.37810145272124 L 754.6115061252391 349.5628689605633 L 700.87082538496 330.967120549658 L 653.4977794178407 386.5827988795028 Z" fill="#221155" fill-opacity="0.2"/><path d="M 737.0371641407934 459.37810145272005 L 752.5719126192722 464.08021017360187 L 812.8840029125776 442.1219226625702 L 819.2390992383802 352.5306584161613 L 806.6733820439827 342.8618739501896 L 754.6115061252392 349.5628689605628 L 737.0371641407934 459.37810145272005 Z" fill="#221155" fill-opacity="0.2"/><path d="M 812.8840029125771 442.1219226625698 L 863.3935608477221 482.29266310304604 L 867.0819751358956 479.5375044681133 L 901.0929117951472 361.7098251037162 L 819.2390992383798 352.53065841616245 L 812.8840029125771 442.1219226625698 Z" fill="#221155" fill-opacity="0.2"/><path d="M 494.8098082459423 419.24560293694674 L 541.5760439457661 487.23094001025333 L 592.0403261319052 471.06898287576394 L 611.6774443998291 405.72722086138464 L 521.7368309222225 387.46123100873433 L 494.8098082459423 419.24560293694674 Z" fill="#221155" fill-opacity="0.2"/><path d="M 867.0819751358955 479.53750446811335 L 920.0000000000001 471.8512539999009 L 920.0000000000001 356.28283185154106 L 901.092911795148 361.7098251037142 L 867.0819751358955 479.53750446811335 Z" fill="#221155" fill-opacity="0.2"/><path d="M 69.80532178347569 433.53272993970467 L 72.01937675435678 462.1362984778036 L 128.25439026868384 502.2582587490492 L 183.35868372082223 472.26586919320795 L 192.40335190580987 439.44580603526623 L 192.17398606145795 438.89213772697275 L 121.24299517595378 398.7175382813195 L 69.80532178347569 433.53272993970467 Z" fill="#221155" fill-opacity="0.2"/><path d="M 296.90845393216995 431.63179881984496 L 316.7144353005149 487.1919115233602 L 350.43807447290584 499.4366330712036 L 417.672206566003 464.4287261295587 L 426.75563615791464 430.4340935520871 L 341.054762147898 388.78798235963217 L 317.2596994087051 397.3017896944659 L 296.90845393216995 431.63179881984496 Z" fill="#221155" fill-opacity="0.2"/><path d="M 0 510.2463228362047 L 72.01937675435674 462.1362984778034 L 69.80532178347566 433.53272993970467 L 0 378.48330584421996 L 0 510.2463228362047 Z" fill="#221155" fill-opacity="0.2"/><path d="M 592.0403261319051 471.06898287576377 L 661.9326366004999 519.2495982588681 L 672.7599932844155 516.5797964293903 L 706.5240157454181 467.3867193940899 L 653.4977794178404 386.58279887950226 L 627.1384832444223 391.20959120510605 L 611.6774443998282 405.72722086138685 L 592.0403261319051 471.06898287576377 Z" fill="#221155" fill-opacity="0.2"/><path d="M 417.67220656600233 464.4287261295588 L 449.3785176904654 525.052606178449 L 523.2951246079949 530.0989508349755 L 541.5760439457662 487.2309400102529 L 494.80980824594246 419.24560293694645 L 445.45259440000075 417.79096403265754 L 426.75563615791407 430.4340935520862 L 417.67220656600233 464.4287261295588 Z" fill="#221155" fill-opacity="0.2"/><path d="M 183.3586837208221 472.2658691932073 L 232.18413408736515 541.6695953562701 L 265.8606816146031 542.3856159771047 L 316.7144353005151 487.19191152336015 L 296.90845393216995 431.63179881984433 L 192.4033519058199 439.4458060352291 L 183.3586837208221 472.2658691932073 Z" fill="#221155" fill-opacity="0.2"/><path d="M 752.57191261927 464.0802101736027 L 796.4186854321666 547.1940695858373 L 853.7265598141196 535.6457998238756 L 863.3935608477235 482.2926631030479 L 812.8840029125765 442.1219226625703 L 752.57191261927 464.0802101736027 Z" fill="#221155" fill-opacity="0.2"/><path d="M 0 547.5660940554835 L 114.62755438274935 535.121240929093 L 128.25439026868384 502.2582587490493 L 72.01937675435666 462.13629847780345 L 0 510.24632283620457 L 0 547.5660940554835 Z" fill="#221155" fill-opacity="0.2"/><path d="M 853.7265598141219 535.645799823865 L 859.4927414549074 541.6402885472883 L 919.9999999999993 555.1512549852152 L 919.9999999999995 471.8512539999009 L 867.0819751358856 479.53750446811455 L 863.3935608477252 482.29266310303774 L 853.7265598141219 535.645799823865 Z" fill="#221155" fill-opacity="0.2"/><path d="M 672.759993284416 516.57979642939 L 738.3662552787382 576.2350095824575 L 767.1076236934988 575.3513965225521 L 796.4186854321667 547.194069585837 L 752.5719126192677 464.0802101735976 L 737.0371641407982 459.37810145271874 L 706.5240157454188 467.3867193940898 L 672.759993284416 516.57979642939 Z" fill="#221155" fill-opacity="0.2"/><path d="M 350.43807447290584 499.4366330712033 L 367.65837816879633 555.1871722741118 L 416.09610983635713 571.9167392896414 L 449.3785176904662 525.0526061784494 L 417.6722065660027 464.4287261295584 L 350.43807447290584 499.4366330712033 Z" fill="#221155" fill-opacity="0.2"/><path d="M 523.2951246079948 530.0989508349767 L 542.4444887013232 583.0899756008969 L 580.2923208270778 605.5969400137475 L 609.2176027419633 599.175087316675 L 661.9326366004992 519.2495982588679 L 592.0403261319051 471.0689828757644 L 541.5760439457664 487.2309400102536 L 523.2951246079948 530.0989508349767 Z" fill="#221155" fill-opacity="0.2"/><path d="M 265.8606816146028 542.3856159771052 L 313.50938111577426 599.2828502052139 L 367.65837816879605 555.1871722741108 L 350.43807447290607 499.43663307120386 L 316.71443530051477 487.1919115233604 L 265.8606816146028 542.3856159771052 Z" fill="#221155" fill-opacity="0.2"/><path d="M 114.62755438274908 535.1212409290938 L 127.96915446289624 583.6996242939917 L 192.33035525001554 608.8936375794648 L 232.18413408736512 541.6695953562703 L 183.35868372082226 472.2658691932078 L 128.25439026868403 502.25825874904876 L 114.62755438274908 535.1212409290938 Z" fill="#221155" fill-opacity="0.2"/><path d="M 416.09610983635656 571.9167392896424 L 420.939839319915 590.2552164041671 L 494.42386104800903 612.7986272084063 L 542.444488701323 583.0899756008972 L 523.2951246079945 530.0989508349761 L 449.3785176904663 525.0526061784497 L 416.09610983635656 571.9167392896424 Z" fill="#221155" fill-opacity="0.2"/><path d="M 0 573.6822820648492 L 76.91620614539104 630.9374076412737 L 127.96915446289643 583.6996242939922 L 114.627554382749 535.121240929093 L -1.4210854715202032e-14 547.5660940554835 L 0 573.6822820648492 Z" fill="#221155" fill-opacity="0.2"/><path d="M 609.2176027419652 599.1750873166736 L 680.047209451262 648.3526893708099 L 688.787793279412 647.1681525008447 L 738.3662552787381 576.2350095824571 L 672.7599932844163 516.5797964293897 L 661.9326366004998 519.2495982588679 L 609.2176027419652 599.1750873166736 Z" fill="#221155" fill-opacity="0.2"/><path d="M 859.4927414548896 541.6402885472837 L 864.193290879087 644.2400162756645 L 919.9999999999993 645.2013378001627 L 919.9999999999994 555.1512549852148 L 859.4927414548896 541.6402885472837 Z" fill="#221155" fill-opacity="0.2"/><path d="M 313.5093811157753 599.282850205213 L 313.6759067070134 633.2101535603497 L 403.58285713812074 634.845103978173 L 420.93983931991585 590.2552164041662 L 416.09610983635747 571.9167392896418 L 367.65837816879485 555.1871722741115 L 313.5093811157753 599.282850205213 Z" fill="#221155" fill-opacity="0.2"/><path d="M 192.3303552500154 608.8936375794653 L 200.87804207961636 637.180979536685 L 241.81664392251042 655.988338226208 L 312.38315247295066 635.3219192938756 L 313.67590670701344 633.2101535603538 L 313.50938111577517 599.2828502052153 L 265.8606816146025 542.385615977105 L 232.18413408736532 541.6695953562703 L 192.3303552500154 608.8936375794653 Z" fill="#221155" fill-opacity="0.2"/><path d="M 767.1076236934995 575.3513965225522 L 804.9915539719341 660.4749654805812 L 848.0716341458836 657.2745518854537 L 864.1932908790868 644.2400162756601 L 859.4927414548888 541.6402885472702 L 853.7265598141286 535.6457998238733 L 796.4186854321674 547.1940695858367 L 767.1076236934995 575.3513965225522 Z" fill="#221155" fill-opacity="0.2"/><path d="M 403.5828571381219 634.8451039781702 L 419.944495931804 671.801544341632 L 473.4945663633756 680.8520039192148 L 494.42386104800926 612.7986272084069 L 420.93983931991517 590.2552164041676 L 403.5828571381219 634.8451039781702 Z" fill="#221155" fill-opacity="0.2"/><path d="M 688.787793279408 647.16815250085 L 760.2634747370353 697.9067792443822 L 771.5871021778282 695.0849271851358 L 804.9915539719328 660.4749654805785 L 767.107623693499 575.3513965225516 L 738.3662552787376 576.2350095824568 L 688.787793279408 647.16815250085 Z" fill="#221155" fill-opacity="0.2"/><path d="M 76.91620614539137 630.9374076412735 L 79.33500691498683 666.9671127402123 L 168.3186913283845 674.4915051004948 L 200.8780420796166 637.1809795366851 L 192.33035525001532 608.8936375794647 L 127.96915446289661 583.6996242939919 L 76.91620614539137 630.9374076412735 Z" fill="#221155" fill-opacity="0.2"/><path d="M -2.4939156602441786e-30 704.1195470829006 L 39.73167977508428 707.5579255527864 L 65.20770505602218 692.0797049861912 L 79.33500691498666 666.9671127402119 L 76.91620614539124 630.9374076412738 L -3.552713678800498e-15 573.6822820648491 L -2.4939156602441786e-30 704.1195470829006 Z" fill="#221155" fill-opacity="0.2"/><path d="M 473.49456636337584 680.8520039192142 L 492.79071691921047 704.0597313112661 L 564.4007778270037 700.1544622785892 L 580.2923208270764 605.5969400137471 L 542.4444887013223 583.0899756008968 L 494.42386104800994 612.7986272084045 L 473.49456636337584 680.8520039192142 Z" fill="#221155" fill-opacity="0.2"/><path d="M 312.38315247294264 635.3219192938639 L 339.39295721142906 722.7483728816389 L 386.1970487178122 716.6219922949387 L 419.94449593180184 671.8015443416318 L 403.58285713812086 634.8451039781728 L 313.6759067070009 633.2101535603493 L 312.38315247294264 635.3219192938639 Z" fill="#221155" fill-opacity="0.2"/><path d="M 564.4007778270037 700.1544622785904 L 615.7425137124652 761.3768396212708 L 621.2738810856314 764.4429130622912 L 680.0472094512672 648.3526893708137 L 609.2176027419648 599.1750873166733 L 580.2923208270765 605.5969400137467 L 564.4007778270037 700.1544622785904 Z" fill="#221155" fill-opacity="0.2"/><path d="M 848.0716341458896 657.2745518854521 L 878.9348659374787 740.6469029022905 L 920.0000000000008 749.918680543444 L 920.0000000000005 645.2013378001619 L 864.1932908790861 644.2400162756641 L 848.0716341458896 657.2745518854521 Z" fill="#221155" fill-opacity="0.2"/><path d="M 241.81664392251068 655.9883382262077 L 255.88275359002438 770.7948314711587 L 259.07941904965224 775.425729416373 L 273.87001376653194 783.8382920948097 L 304.2944487703496 769.4490180681772 L 339.3929572114294 722.7483728816389 L 312.38315247294696 635.3219192938766 L 241.81664392251068 655.9883382262077 Z" fill="#221155" fill-opacity="0.2"/><path d="M 168.31869132838474 674.4915051004949 L 169.0624815277372 725.244762617285 L 255.88275359002532 770.7948314711676 L 241.81664392251054 655.9883382262079 L 200.87804207961693 637.1809795366852 L 168.31869132838474 674.4915051004949 Z" fill="#221155" fill-opacity="0.2"/><path d="M 65.20770505602219 692.0797049861909 L 132.82437365106054 750.869643449729 L 169.06248152773716 725.2447626172856 L 168.3186913283848 674.4915051004947 L 79.33500691498635 666.967112740212 L 65.20770505602219 692.0797049861909 Z" fill="#221155" fill-opacity="0.2"/><path d="M 621.2738810856308 764.4429130622921 L 622.3276834610652 765.9324159037402 L 653.7306354057298 774.7509088595466 L 746.6615323386179 719.1746724800508 L 760.2634747370269 697.9067792443757 L 688.787793279403 647.1681525008461 L 680.0472094512692 648.352689370809 L 621.2738810856308 764.4429130622921 Z" fill="#221155" fill-opacity="0.2"/><path d="M 771.5871021778418 695.0849271851249 L 829.8989765209725 768.5376968258108 L 878.9348659374779 740.6469029022894 L 848.0716341458887 657.2745518854524 L 804.9915539719342 660.4749654805804 L 771.5871021778418 695.0849271851249 Z" fill="#221155" fill-opacity="0.2"/><path d="M 386.19704871781187 716.6219922949396 L 448.3170407404478 789.5345898151003 L 461.5720581153958 787.7243509125553 L 492.79071691921007 704.059731311268 L 473.494566363375 680.8520039192155 L 419.94449593180167 671.8015443416326 L 386.19704871781187 716.6219922949396 Z" fill="#221155" fill-opacity="0.2"/><path d="M 39.73167977508399 707.5579255527864 L 56.378775483517714 801.0213520078385 L 79.04995900365526 817.5243002293671 L 121.95653931111109 803.0102429081668 L 132.8243736510604 750.8696434497288 L 65.20770505602239 692.079704986191 L 39.73167977508399 707.5579255527864 Z" fill="#221155" fill-opacity="0.2"/><path d="M 461.5720581153955 787.7243509125559 L 479.76330563241976 799.3513232043119 L 615.7425137124633 761.3768396212683 L 564.4007778270029 700.1544622785893 L 492.7907169192102 704.0597313112661 L 461.5720581153955 787.7243509125559 Z" fill="#221155" fill-opacity="0.2"/><path d="M 746.6615323386196 719.1746724800468 L 764.0320616720849 800.9234666000272 L 822.367314626969 790.7632886827616 L 829.8989765209756 768.5376968258146 L 771.5871021778449 695.0849271851289 L 760.2634747370215 697.9067792443833 L 746.6615323386196 719.1746724800468 Z" fill="#221155" fill-opacity="0.2"/><path d="M 0 807.0032245699769 L 56.37877548351768 801.0213520078382 L 39.73167977508392 707.5579255527863 L 0 704.1195470829005 L 0 807.0032245699769 Z" fill="#221155" fill-opacity="0.2"/><path d="M 304.29444877035064 769.4490180681764 L 409.1769845832473 821.2742174542585 L 448.3170407404486 789.5345898151023 L 386.19704871781045 716.6219922949387 L 339.3929572114305 722.7483728816386 L 304.29444877035064 769.4490180681764 Z" fill="#221155" fill-opacity="0.2"/><path d="M 653.7306354057287 774.7509088595475 L 714.2948523978198 830.4593901926437 L 728.2976343645297 832.6679423523963 L 764.0320616720858 800.9234666000269 L 746.6615323386209 719.1746724800487 L 653.7306354057287 774.7509088595475 Z" fill="#221155" fill-opacity="0.2"/><path d="M 121.95653931111129 803.0102429081664 L 153.0516027770234 819.4988983439594 L 259.07941904964156 775.4257294163662 L 255.8827535900245 770.7948314711674 L 169.06248152773736 725.2447626172856 L 132.82437365106037 750.8696434497292 L 121.95653931111129 803.0102429081664 Z" fill="#221155" fill-opacity="0.2"/><path d="M 822.3673146269678 790.7632886827682 L 845.6810649943102 837.0214389004278 L 919.9999999999991 863.5389129974808 L 919.9999999999989 749.9186805434447 L 878.9348659374738 740.6469029022905 L 829.8989765209791 768.537696825806 L 822.3673146269678 790.7632886827682 Z" fill="#221155" fill-opacity="0.2"/><path d="M 479.76330563241766 799.3513232043127 L 509.52584567998633 858.5625518424982 L 557.0195006056399 876.1109332117752 L 586.9504671569811 869.0467114058821 L 622.3276834610627 765.9324159037649 L 621.2738810855885 764.4429130622609 L 615.7425137124696 761.3768396212665 L 479.76330563241766 799.3513232043127 Z" fill="#221155" fill-opacity="0.2"/><path d="M 273.8700137665329 783.8382920948086 L 276.2818614645329 837.0279063036239 L 369.8217919952304 885.3236961688488 L 399.5006576941061 859.0450516254602 L 409.1769845832479 821.2742174542585 L 304.29444877035013 769.4490180681757 L 273.8700137665329 783.8382920948086 Z" fill="#221155" fill-opacity="0.2"/><path d="M 728.2976343645323 832.6679423523943 L 777.5109223327751 896.7597546553882 L 845.6810649943124 837.0214389004262 L 822.3673146269675 790.7632886827619 L 764.0320616720874 800.9234666000266 L 728.2976343645323 832.6679423523943 Z" fill="#221155" fill-opacity="0.2"/><path d="M 153.051602777023 819.4988983439596 L 185.38072801149238 917.1887877609473 L 187.52027723696668 918.4599949486828 L 239.5782220251697 904.4357065082082 L 276.28186146453254 837.0279063036247 L 273.87001376653245 783.8382920948087 L 259.07941904964207 775.425729416366 L 153.051602777023 819.4988983439596 Z" fill="#221155" fill-opacity="0.2"/><path d="M 0 880.7412568491708 L 71.20411781991713 859.3684233762277 L 79.04995900365515 817.5243002293672 L 56.378775483517366 801.0213520078383 L 0 807.0032245699767 L 0 880.7412568491708 Z" fill="#221155" fill-opacity="0.2"/><path d="M 586.9504671569807 869.0467114058831 L 629.3302002049411 912.9666456663858 L 655.690502801333 917.3739744516809 L 714.294852397814 830.4593901926384 L 653.7306354057296 774.7509088595481 L 622.3276834610699 765.9324159037428 L 586.9504671569807 869.0467114058831 Z" fill="#221155" fill-opacity="0.2"/><path d="M 399.5006576941058 859.0450516254616 L 463.4572100752288 902.8525466676034 L 509.52584567998696 858.5625518424978 L 479.7633056324197 799.351323204315 L 461.5720581153922 787.724350912557 L 448.31704074044967 789.534589815101 L 409.1769845832483 821.2742174542574 L 399.5006576941058 859.0450516254616 Z" fill="#221155" fill-opacity="0.2"/><path d="M 71.20411781991707 859.368423376227 L 94.33201382790993 917.2749583462482 L 185.38072801149755 917.1887877609631 L 153.05160277702282 819.4988983439595 L 121.95653931111146 803.0102429081667 L 79.04995900365499 817.5243002293673 L 71.20411781991707 859.368423376227 Z" fill="#221155" fill-opacity="0.2"/><path d="M 777.5109223327768 896.7597546553872 L 777.942627634279 910.0892944449442 L 861.3570905696909 924.0952475135575 L 919.9999999999984 884.1007757702985 L 919.9999999999986 863.5389129974799 L 845.6810649943113 837.0214389004275 L 777.5109223327768 896.7597546553872 Z" fill="#221155" fill-opacity="0.2"/><path d="M 655.6905028013318 917.3739744516839 L 700.4196965763734 960.9045512212781 L 773.4717517060475 919.7211768343409 L 777.942627634274 910.0892944449264 L 777.5109223327723 896.7597546553826 L 728.2976343645345 832.6679423523951 L 714.2948523978127 830.4593901926407 L 655.6905028013318 917.3739744516839 Z" fill="#221155" fill-opacity="0.2"/><path d="M 239.57822202516925 904.4357065082087 L 295.8871174556227 956.561625266963 L 363.8971414016975 937.4559088354524 L 369.82179199523176 885.3236961688497 L 276.28186146453265 837.0279063036241 L 239.57822202516925 904.4357065082087 Z" fill="#221155" fill-opacity="0.2"/><path d="M 0 945.7797995000748 L 68.2483073392146 950.3673129948497 L 94.33201382790996 917.2749583462481 L 71.20411781991736 859.3684233762274 L 0 880.7412568491706 L 0 945.7797995000748 Z" fill="#221155" fill-opacity="0.2"/><path d="M 363.8971414016966 937.4559088354524 L 381.54127015142274 954.0787206855432 L 461.64381305773 946.5385998746394 L 463.3875023746725 944.279986549156 L 463.457210075228 902.8525466676036 L 399.500657694106 859.0450516254624 L 369.8217919952307 885.3236961688501 L 363.8971414016966 937.4559088354524 Z" fill="#221155" fill-opacity="0.2"/><path d="M 463.3875023746735 944.2799865491656 L 530.4349065363712 945.1509447671309 L 557.0195006056398 876.1109332117749 L 509.5258456799859 858.5625518424979 L 463.4572100752287 902.8525466676028 L 463.3875023746735 944.2799865491656 Z" fill="#221155" fill-opacity="0.2"/><path d="M 530.4349065363714 945.150944767133 L 565.545162190903 1000.0000000000019 L 575.4515384976479 1000.0000000000022 L 629.3302002049453 912.966645666389 L 586.9504671569811 869.0467114058823 L 557.0195006056408 876.1109332117754 L 530.4349065363714 945.150944767133 Z" fill="#221155" fill-opacity="0.2"/><path d="M 773.4717517060606 919.7211768343325 L 814.9037275273918 1000.000000000002 L 852.428140787394 1000.0000000000019 L 861.3570905696913 924.0952475135581 L 777.9426276342748 910.0892944449437 L 773.4717517060606 919.7211768343325 Z" fill="#221155" fill-opacity="0.2"/><path d="M 920.0000000000005 884.1007757702972 L 861.3570905696912 924.0952475135573 L 852.4281407873935 999.9999999999995 L 920.0000000000005 999.9999999999997 L 920.0000000000005 884.1007757702972 Z" fill="#221155" fill-opacity="0.2"/><path d="M 68.24830733921432 950.36731299485 L 81.84147755742498 1000.0000000000002 L 180.6036367366921 1000 L 187.5202772369534 918.4599949486774 L 185.38072801151412 917.1887877609628 L 94.33201382790972 917.274958346248 L 68.24830733921432 950.36731299485 Z" fill="#221155" fill-opacity="0.2"/><path d="M 698.1695401093469 1000.0000000000002 L 700.4196965763762 960.9045512212813 L 655.6905028013325 917.3739744516848 L 629.3302002049455 912.9666456663901 L 575.4515384976495 1000.0000000000002 L 698.1695401093469 1000.0000000000002 Z" fill="#221155" fill-opacity="0.2"/><path d="M 461.64381305773907 946.5385998746215 L 468.92302096581824 1000.0000000000005 L 565.5451621909015 1000.0000000000003 L 530.4349065363705 945.1509447671323 L 463.38750237465973 944.2799865491667 L 461.64381305773907 946.5385998746215 Z" fill="#221155" fill-opacity="0.2"/><path d="M 289.2244795479209 999.9999999999999 L 295.8871174556226 956.5616252669628 L 239.5782220251691 904.4357065082085 L 187.52027723695224 918.459994948687 L 180.60363673669178 999.9999999999999 L 289.2244795479209 999.9999999999999 Z" fill="#221155" fill-opacity="0.2"/><path d="M 814.9037275273902 999.9999999999998 L 773.4717517060608 919.7211768343337 L 700.419696576375 960.9045512212776 L 698.1695401093457 999.9999999999998 L 814.9037275273902 999.9999999999998 Z" fill="#221155" fill-opacity="0.2"/><path d="M 381.5412701514222 954.0787206855434 L 385.1659664936932 1000.0000000000006 L 468.92302096581784 1000.0000000000005 L 461.6438130577409 946.5385998746382 L 381.5412701514222 954.0787206855434 Z" fill="#221155" fill-opacity="0.2"/><path d="M 385.16596649369365 999.9999999999998 L 381.5412701514225 954.07872068554 L 363.89714140169906 937.4559088354517 L 295.88711745562335 956.5616252669621 L 289.22447954792153 999.9999999999998 L 385.16596649369365 999.9999999999998 Z" fill="#221155" fill-opacity="0.2"/><path d="M 81.84147755742515 1000.0000000000002 L 68.24830733921436 950.3673129948497 L 0 945.7797995000748 L 0 1000 L 81.84147755742515 1000.0000000000002 Z" fill="#221155" fill-opacity="0.2"/></g><g id="svg_g_edges"><path id="svg_path_edges" d="M 406.57319324680816 0 L 406.097438692676 27.57498192209676 M 867.2903543120885 27.11719054165203 L 874.2254485979054 0 M 312.4578730947996 0 L 325.12071678186356 50.88723925091411 M 68.67732652283576 0 L 73.83165387899902 82.79322750332591 M 143.53340243092336 0 L 120.121639190862 69.72007569498739 M 515.4652573935169 0 L 485.46463429016353 73.34172111691365 M 213.8870546759079 0 L 226.77199098783694 88.3697444818593 M 590.6167336869643 0 L 602.8129846324499 48.557671085730036 M 705.9782207354456 0 L 663.5831305965802 72.85139561329058 M 752.4956122447512 0 L 789.2997287875787 69.74131538207408 M 406.097438692676 27.57498192209676 L 325.12071678186356 50.88723925091411 M 867.2903543120885 27.11719054165203 L 920 72.7199645557856 M 867.2903543120885 27.11719054165203 L 797.314223076004 73.0050816679327 M 406.097438692676 27.57498192209676 L 449.7692663838527 90.99280681702427 M 325.12071678186356 50.88723925091411 L 316.5301963005322 69.76838522124194 M 602.8129846324499 48.557671085730036 L 655.0963500581025 74.77608955435888 M 602.8129846324499 48.557671085730036 L 558.3801598718908 99.46983030272658 M 120.121639190862 69.72007569498739 L 201.31395722966755 105.76605823414866 M 120.121639190862 69.72007569498739 L 73.83165387899902 82.79322750332591 M 316.5301963005322 69.76838522124194 L 226.77199098783694 88.3697444818593 M 663.5831305965802 72.85139561329058 L 724.2048191063361 110.82780186503251 M 663.5831305965802 72.85139561329058 L 655.0963500581025 74.77608955435888 M 316.5301963005322 69.76838522124194 L 360.6803590125163 131.35185869531747 M 655.0963500581025 74.77608955435888 L 625.3824216521137 161.3580405508335 M 485.46463429016353 73.34172111691365 L 558.3801598718908 99.46983030272658 M 485.46463429016353 73.34172111691365 L 449.7692663838527 90.99280681702427 M 789.2997287875787 69.74131538207408 L 724.2048191063361 110.82780186503251 M 73.83165387899902 82.79322750332591 L 25.589637245815425 135.39955857370128 M 789.2997287875787 69.74131538207408 L 797.314223076004 73.0050816679327 M 797.314223076004 73.0050816679327 L 821.8959025770582 113.62596159338669 M 558.3801598718908 99.46983030272658 L 567.933744228246 128.2958205124166 M 724.2048191063361 110.82780186503251 L 709.4487430995943 184.66931150570133 M 226.77199098783694 88.3697444818593 L 220.38300566790403 99.99465211563646 M 449.7692663838527 90.99280681702427 L 440.1793302960305 113.3751195228968 M 821.8959025770582 113.62596159338669 L 878.4232255986869 134.49404539948375 M 821.8959025770582 113.62596159338669 L 777.4266386091346 212.61060532179954 M 567.933744228246 128.2958205124166 L 498.07096908000045 203.1279963423828 M 567.933744228246 128.2958205124166 L 625.3824216521137 161.3580405508335 M 201.31395722966755 105.76605823414866 L 160.52926010023052 150.6575460006422 M 201.31395722966755 105.76605823414866 L 220.38300566790403 99.99465211563646 M 220.38300566790403 99.99465211563646 L 255.2132664668419 161.4354642930639 M 878.4232255986869 134.49404539948375 L 920 120.12986103486192 M 160.52926010023052 150.6575460006422 L 55.34107484014105 148.25864546572393 M 878.4232255986869 134.49404539948375 L 867.681042912272 230.29150091998542 M 440.1793302960305 113.3751195228968 L 391.29186915660813 134.76565486008008 M 360.6803590125163 131.35185869531747 L 308.10145522402416 175.46758170570985 M 360.6803590125163 131.35185869531747 L 391.29186915660813 134.76565486008008 M 440.1793302960305 113.3751195228968 L 498.07096908000045 203.1279963423828 M 160.52926010023052 150.6575460006422 L 167.93452248030889 241.82021473188553 M 391.29186915660813 134.76565486008008 L 392.50025026603146 220.177385413871 M 255.2132664668419 161.4354642930639 L 308.10145522402416 175.46758170570985 M 255.2132664668419 161.4354642930639 L 215.55927409375857 240.215994468187 M 626.5325828216114 163.61421102176215 L 709.4487430995943 184.66931150570133 M 625.3824216521137 161.3580405508335 L 626.5325828216114 163.61421102176215 M 55.34107484014105 148.25864546572393 L 140.89186177741917 247.986107172845 M 626.5325828216114 163.61421102176215 L 595.8081808475669 222.52232711352184 M 55.34107484014105 148.25864546572393 L 25.589637245815425 135.39955857370128 M 308.10145522402416 175.46758170570985 L 322.39070625834376 227.00339864513873 M 25.589637245815425 135.39955857370128 L 0 141.1687190425542 M 392.50025026603146 220.177385413871 L 491.38627364992016 223.82421766639376 M 709.4487430995943 184.66931150570133 L 726.1008551709373 209.53904513991796 M 595.8081808475669 222.52232711352184 L 498.6849689364351 209.17666085407672 M 392.50025026603146 220.177385413871 L 380.81704231572695 233.57599403244595 M 322.39070625834376 227.00339864513873 L 380.81704231572695 233.57599403244595 M 595.8081808475669 222.52232711352184 L 614.5037739859108 270.1242986004703 M 498.07096908000045 203.1279963423828 L 498.6849689364351 209.17666085407672 M 322.39070625834376 227.00339864513873 L 295.2628282231658 267.5217523264687 M 380.81704231572695 233.57599403244595 L 395.6936281928766 295.9527342033873 M 777.4266386091346 212.61060532179954 L 726.1008551709373 209.53904513991796 M 777.4266386091346 212.61060532179954 L 818.213431259143 243.10278422396857 M 498.6849689364351 209.17666085407672 L 491.38627364992016 223.82421766639376 M 726.1008551709373 209.53904513991796 L 684.328883543493 285.362281382799 M 867.681042912272 230.29150091998542 L 920 249.63007871930472 M 867.681042912272 230.29150091998542 L 818.213431259143 243.10278422396857 M 215.55927409375857 240.215994468187 L 295.2628282231658 267.5217523264687 M 491.38627364992016 223.82421766639376 L 490.41064279176624 241.81820462874185 M 0 220.81620768991334 L 93.27923972966332 289.0814218882995 M 215.55927409375857 240.215994468187 L 192.21792119555124 249.94695660884193 M 490.41064279176624 241.81820462874185 L 568.5244247162748 312.11199108799406 M 490.41064279176624 241.81820462874185 L 472.20039773681646 271.2835693841642 M 167.93452248030889 241.82021473188553 L 140.89186177741917 247.986107172845 M 167.93452248030889 241.82021473188553 L 192.21792119555124 249.94695660884193 M 140.89186177741917 247.986107172845 L 93.27923972966332 289.0814218882995 M 818.213431259143 243.10278422396857 L 806.6733820439824 342.8618739501899 M 472.20039773681646 271.2835693841642 L 395.6936281928766 295.9527342033873 M 192.21792119555124 249.94695660884193 L 207.97247330846523 339.82687392256804 M 295.2628282231658 267.5217523264687 L 298.857604568801 281.24968755500544 M 472.20039773681646 271.2835693841642 L 480.69462109167426 321.5637552926916 M 614.5037739859108 270.1242986004703 L 684.328883543493 285.362281382799 M 614.5037739859108 270.1242986004703 L 571.3541197139757 311.76790215490394 M 298.857604568801 281.24968755500544 L 370.6807192343498 318.84105228266804 M 298.857604568801 281.24968755500544 L 268.5202590853372 338.9909907576405 M 395.6936281928766 295.9527342033873 L 388.4556931025618 309.95805708545294 M 93.27923972966332 289.0814218882995 L 89.39704143212208 324.66069796874086 M 480.69462109167426 321.5637552926916 L 439.1275623110632 357.1868817322233 M 480.69462109167426 321.5637552926916 L 526.214036062836 350.1887316155537 M 684.328883543493 285.362281382799 L 700.8708253849601 330.96712054965764 M 388.4556931025618 309.95805708545294 L 439.1275623110632 357.1868817322233 M 388.4556931025618 309.95805708545294 L 370.6807192343498 318.84105228266804 M 103.52264390665998 338.6225622628375 L 207.97247330846523 339.82687392256804 M 568.5244247162748 312.11199108799406 L 571.3541197139757 311.76790215490394 M 568.5244247162748 312.11199108799406 L 526.214036062836 350.1887316155537 M 571.3541197139757 311.76790215490394 L 627.1384832444196 391.20959120510696 M 370.6807192343498 318.84105228266804 L 341.05476214789763 388.7879823596321 M 268.5202590853372 338.9909907576405 L 209.68612014054142 342.00244857351095 M 268.5202590853372 338.9909907576405 L 317.2596994087046 397.30178969446587 M 89.39704143212208 324.66069796874086 L 0 370.62137095741605 M 89.39704143212208 324.66069796874086 L 103.52264390665998 338.6225622628375 M 526.214036062836 350.1887316155537 L 521.7368309222223 387.46123100873433 M 103.52264390665998 338.6225622628375 L 121.24299517595395 398.7175382813193 M 439.1275623110632 357.1868817322233 L 445.4525944000015 417.79096403265766 M 207.97247330846523 339.82687392256804 L 209.68612014054142 342.00244857351095 M 209.68612014054142 342.00244857351095 L 192.1739860614913 438.89213772699145 M 700.8708253849601 330.96712054965764 L 754.6115061252393 349.5628689605631 M 700.8708253849601 330.96712054965764 L 653.4977794178403 386.58279887950255 M 754.6115061252393 349.5628689605631 L 806.6733820439824 342.8618739501899 M 754.6115061252393 349.5628689605631 L 737.0371641407929 459.3781014527209 M 819.2390992383803 352.5306584161618 L 901.0929117951474 361.70982510371556 M 806.6733820439824 342.8618739501899 L 819.2390992383803 352.5306584161618 M 521.7368309222223 387.46123100873433 L 611.6774443998287 405.7272208613845 M 819.2390992383803 352.5306584161618 L 812.8840029125774 442.1219226625698 M 901.0929117951474 361.70982510371556 L 920 356.2828318515423 M 901.0929117951474 361.70982510371556 L 867.0819751358953 479.53750446811404 M 521.7368309222223 387.46123100873433 L 494.80980824594224 419.2456029369465 M 121.24299517595395 398.7175382813193 L 69.80532178347556 433.5327299397046 M 121.24299517595395 398.7175382813193 L 192.1739860614913 438.89213772699145 M 341.05476214789763 388.7879823596321 L 426.7556361579142 430.434093552087 M 0 378.48330584422 L 69.80532178347556 433.5327299397046 M 653.4977794178403 386.58279887950255 L 627.1384832444196 391.20959120510696 M 653.4977794178403 386.58279887950255 L 706.5240157454185 467.38671939409073 M 341.05476214789763 388.7879823596321 L 317.2596994087046 397.30178969446587 M 627.1384832444196 391.20959120510696 L 611.6774443998287 405.7272208613845 M 611.6774443998287 405.7272208613845 L 592.0403261319047 471.0689828757643 M 317.2596994087046 397.30178969446587 L 296.9084539321698 431.63179881984445 M 69.80532178347556 433.5327299397046 L 72.01937675435667 462.1362984778035 M 494.80980824594224 419.2456029369465 L 445.4525944000015 417.79096403265766 M 494.80980824594224 419.2456029369465 L 541.5760439457663 487.23094001025345 M 296.9084539321698 431.63179881984445 L 192.4033519058202 439.4458060352292 M 812.8840029125774 442.1219226625698 L 752.5719126192706 464.0802101736022 M 445.4525944000015 417.79096403265766 L 426.7556361579142 430.434093552087 M 812.8840029125774 442.1219226625698 L 863.3935608477228 482.2926631030463 M 296.9084539321698 431.63179881984445 L 316.7144353005149 487.1919115233603 M 426.7556361579142 430.434093552087 L 417.6722065660025 464.4287261295587 M 72.01937675435667 462.1362984778035 L 0 510.2463228362047 M 72.01937675435667 462.1362984778035 L 128.2543902686837 502.2582587490491 M 867.0819751358953 479.53750446811404 L 920 471.85125399990164 M 737.0371641407929 459.3781014527209 L 752.5719126192706 464.0802101736022 M 737.0371641407929 459.3781014527209 L 706.5240157454185 467.38671939409073 M 752.5719126192706 464.0802101736022 L 796.4186854321669 547.1940695858366 M 192.1739860614913 438.89213772699145 L 192.4033519058202 439.4458060352292 M 192.4033519058202 439.4458060352292 L 183.35868372082234 472.26586919320766 M 417.6722065660025 464.4287261295587 L 350.43807447290556 499.4366330712035 M 417.6722065660025 464.4287261295587 L 449.37851769046597 525.0526061784495 M 592.0403261319047 471.0689828757643 L 541.5760439457663 487.23094001025345 M 592.0403261319047 471.0689828757643 L 661.9326366004997 519.2495982588684 M 706.5240157454185 467.38671939409073 L 672.7599932844162 516.5797964293904 M 867.0819751358953 479.53750446811404 L 863.3935608477228 482.2926631030463 M 316.7144353005149 487.1919115233603 L 350.43807447290556 499.4366330712035 M 316.7144353005149 487.1919115233603 L 265.86068161460287 542.3856159771049 M 863.3935608477228 482.2926631030463 L 853.726559814119 535.6457998238751 M 183.35868372082234 472.26586919320766 L 128.2543902686837 502.2582587490491 M 183.35868372082234 472.26586919320766 L 232.18413408736524 541.6695953562703 M 350.43807447290556 499.4366330712035 L 367.65837816879576 555.1871722741113 M 541.5760439457663 487.23094001025345 L 523.2951246079949 530.098950834976 M 128.2543902686837 502.2582587490491 L 114.62755438274914 535.121240929093 M 449.37851769046597 525.0526061784495 L 523.2951246079949 530.098950834976 M 114.62755438274914 535.121240929093 L -1.4210854715202004e-14 547.5660940554835 M 449.37851769046597 525.0526061784495 L 416.09610983635724 571.9167392896411 M 672.7599932844162 516.5797964293904 L 738.3662552787373 576.235009582457 M 672.7599932844162 516.5797964293904 L 661.9326366004997 519.2495982588684 M 661.9326366004997 519.2495982588684 L 609.2176027419654 599.1750873166733 M 114.62755438274914 535.121240929093 L 127.96915446289653 583.6996242939919 M 859.4927414548896 541.6402885472827 L 920 555.1512549852139 M 523.2951246079949 530.098950834976 L 542.4444887013236 583.0899756008977 M 367.65837816879576 555.1871722741113 L 416.09610983635724 571.9167392896411 M 367.65837816879576 555.1871722741113 L 313.50938111577454 599.2828502052139 M 265.86068161460287 542.3856159771049 L 232.18413408736524 541.6695953562703 M 853.726559814119 535.6457998238751 L 796.4186854321669 547.1940695858366 M 265.86068161460287 542.3856159771049 L 313.50938111577454 599.2828502052139 M 232.18413408736524 541.6695953562703 L 192.33035525001569 608.8936375794648 M 853.726559814119 535.6457998238751 L 859.4927414548896 541.6402885472827 M 796.4186854321669 547.1940695858366 L 767.1076236934994 575.3513965225517 M 859.4927414548896 541.6402885472827 L 864.1932908790872 644.2400162756638 M 416.09610983635724 571.9167392896411 L 420.93983931991596 590.2552164041672 M 420.93983931991596 590.2552164041672 L 494.42386104801 612.7986272084064 M 738.3662552787373 576.235009582457 L 767.1076236934994 575.3513965225517 M 738.3662552787373 576.235009582457 L 688.7877932794079 647.1681525008496 M 127.96915446289653 583.6996242939919 L 192.33035525001569 608.8936375794648 M 767.1076236934994 575.3513965225517 L 804.9915539719342 660.4749654805809 M 127.96915446289653 583.6996242939919 L 76.9162061453911 630.9374076412737 M 420.93983931991596 590.2552164041672 L 403.58285713812137 634.845103978173 M -3.552713678800501e-15 573.6822820648491 L 76.9162061453911 630.9374076412737 M 542.4444887013236 583.0899756008977 L 494.42386104801 612.7986272084064 M 313.50938111577454 599.2828502052139 L 313.6759067070127 633.2101535603497 M 542.4444887013236 583.0899756008977 L 580.2923208270757 605.5969400137468 M 494.42386104801 612.7986272084064 L 473.4945663633763 680.8520039192147 M 403.58285713812137 634.845103978173 L 313.6759067070127 633.2101535603497 M 609.2176027419654 599.1750873166733 L 680.0472094512676 648.3526893708134 M 609.2176027419654 599.1750873166733 L 580.2923208270757 605.5969400137468 M 192.33035525001569 608.8936375794648 L 200.87804207961685 637.180979536685 M 580.2923208270757 605.5969400137468 L 564.4007778270029 700.1544622785898 M 403.58285713812137 634.845103978173 L 419.94449593180207 671.8015443416315 M 76.9162061453911 630.9374076412737 L 79.33500691498652 666.967112740212 M 864.1932908790872 644.2400162756638 L 920 645.2013378001618 M 312.38315247294673 635.3219192938768 L 241.81664392251068 655.9883382262079 M 313.6759067070127 633.2101535603497 L 312.38315247294673 635.3219192938768 M 312.38315247294673 635.3219192938768 L 339.39295721142923 722.7483728816392 M 864.1932908790872 644.2400162756638 L 848.0716341458893 657.274551885453 M 200.87804207961685 637.180979536685 L 241.81664392251068 655.9883382262079 M 200.87804207961685 637.180979536685 L 168.31869132838474 674.4915051004948 M 168.31869132838474 674.4915051004948 L 79.33500691498652 666.967112740212 M 688.7877932794079 647.1681525008496 L 760.2634747370279 697.9067792443765 M 688.7877932794079 647.1681525008496 L 680.0472094512676 648.3526893708134 M 680.0472094512676 648.3526893708134 L 621.273881085632 764.4429130622907 M 241.81664392251068 655.9883382262079 L 255.88275359002552 770.7948314711681 M 848.0716341458893 657.274551885453 L 804.9915539719342 660.4749654805809 M 848.0716341458893 657.274551885453 L 878.9348659374778 740.6469029022885 M 419.94449593180207 671.8015443416315 L 473.4945663633763 680.8520039192147 M 419.94449593180207 671.8015443416315 L 386.19704871781187 716.621992294939 M 804.9915539719342 660.4749654805809 L 771.5871021778428 695.0849271851243 M 168.31869132838474 674.4915051004948 L 169.06248152773708 725.2447626172852 M 79.33500691498652 666.967112740212 L 65.20770505602229 692.0797049861911 M 473.4945663633763 680.8520039192147 L 492.7907169192108 704.0597313112665 M 65.20770505602229 692.0797049861911 L 132.82437365106037 750.8696434497289 M 492.7907169192108 704.0597313112665 L 564.4007778270029 700.1544622785898 M 65.20770505602229 692.0797049861911 L 39.73167977508393 707.5579255527864 M 771.5871021778428 695.0849271851243 L 829.8989765209732 768.5376968258098 M 771.5871021778428 695.0849271851243 L 760.2634747370279 697.9067792443765 M 492.7907169192108 704.0597313112665 L 461.5720581153955 787.7243509125575 M 760.2634747370279 697.9067792443765 L 746.6615323386205 719.1746724800486 M 39.73167977508393 707.5579255527864 L 0 704.1195470829007 M 564.4007778270029 700.1544622785898 L 615.7425137124628 761.3768396212683 M 386.19704871781187 716.621992294939 L 339.39295721142923 722.7483728816392 M 386.19704871781187 716.621992294939 L 448.3170407404495 789.534589815102 M 746.6615323386205 719.1746724800486 L 653.7306354057274 774.7509088595477 M 169.06248152773708 725.2447626172852 L 255.88275359002552 770.7948314711681 M 746.6615323386205 719.1746724800486 L 764.0320616720852 800.9234666000261 M 169.06248152773708 725.2447626172852 L 132.82437365106037 750.8696434497289 M 39.73167977508393 707.5579255527864 L 56.378775483517686 801.0213520078383 M 339.39295721142923 722.7483728816392 L 304.2944487703502 769.4490180681761 M 878.9348659374778 740.6469029022885 L 829.8989765209732 768.5376968258098 M 878.9348659374778 740.6469029022885 L 920 749.9186805434421 M 132.82437365106037 750.8696434497289 L 121.95653931111113 803.0102429081667 M 615.7425137124628 761.3768396212683 L 479.7633056324182 799.3513232043124 M 829.8989765209732 768.5376968258098 L 822.3673146269653 790.7632886827615 M 304.2944487703502 769.4490180681761 L 409.1769845832477 821.2742174542586 M 822.3673146269653 790.7632886827615 L 764.0320616720852 800.9234666000261 M 259.079419049642 775.425729416366 L 153.05160277702302 819.4988983439597 M 822.3673146269653 790.7632886827615 L 845.6810649943104 837.0214389004266 M 764.0320616720852 800.9234666000261 L 728.2976343645311 832.6679423523934 M 56.378775483517686 801.0213520078383 L 0 807.0032245699769 M 304.2944487703502 769.4490180681761 L 273.87001376653245 783.8382920948088 M 255.88275359002552 770.7948314711681 L 259.079419049642 775.425729416366 M 615.7425137124628 761.3768396212683 L 621.273881085632 764.4429130622907 M 653.7306354057274 774.7509088595477 L 714.2948523978138 830.4593901926397 M 653.7306354057274 774.7509088595477 L 622.3276834610695 765.932415903743 M 56.378775483517686 801.0213520078383 L 79.04995900365532 817.5243002293671 M 621.273881085632 764.4429130622907 L 622.3276834610695 765.932415903743 M 461.5720581153955 787.7243509125575 L 448.3170407404495 789.534589815102 M 461.5720581153955 787.7243509125575 L 479.7633056324182 799.3513232043124 M 448.3170407404495 789.534589815102 L 409.1769845832477 821.2742174542586 M 259.079419049642 775.425729416366 L 273.87001376653245 783.8382920948088 M 622.3276834610695 765.932415903743 L 586.9504671569808 869.0467114058814 M 479.7633056324182 799.3513232043124 L 509.5258456799869 858.5625518424979 M 121.95653931111113 803.0102429081667 L 153.05160277702302 819.4988983439597 M 121.95653931111113 803.0102429081667 L 79.04995900365532 817.5243002293671 M 153.05160277702302 819.4988983439597 L 185.3807280114975 917.1887877609628 M 273.87001376653245 783.8382920948088 L 276.2818614645324 837.0279063036243 M 409.1769845832477 821.2742174542586 L 399.50065769410554 859.0450516254618 M 79.04995900365532 817.5243002293671 L 71.20411781991724 859.3684233762276 M 845.6810649943104 837.0214389004266 L 777.5109223327743 896.759754655388 M 845.6810649943104 837.0214389004266 L 920 863.5389129974799 M 714.2948523978138 830.4593901926397 L 655.6905028013323 917.3739744516832 M 714.2948523978138 830.4593901926397 L 728.2976343645311 832.6679423523934 M 728.2976343645311 832.6679423523934 L 777.5109223327743 896.759754655388 M 276.2818614645324 837.0279063036243 L 369.8217919952306 885.3236961688494 M 71.20411781991724 859.3684233762276 L 0 880.7412568491708 M 276.2818614645324 837.0279063036243 L 239.57822202516928 904.4357065082083 M 399.50065769410554 859.0450516254618 L 463.45721007522883 902.852546667604 M 509.5258456799869 858.5625518424979 L 463.45721007522883 902.852546667604 M 509.5258456799869 858.5625518424979 L 557.0195006056399 876.1109332117745 M 71.20411781991724 859.3684233762276 L 94.33201382790978 917.2749583462481 M 399.50065769410554 859.0450516254618 L 369.8217919952306 885.3236961688494 M 557.0195006056399 876.1109332117745 L 586.9504671569808 869.0467114058814 M 557.0195006056399 876.1109332117745 L 530.4349065363706 945.1509447671325 M 586.9504671569808 869.0467114058814 L 629.3302002049454 912.9666456663884 M 369.8217919952306 885.3236961688494 L 363.8971414016964 937.4559088354524 M 463.45721007522883 902.852546667604 L 463.3875023746735 944.2799865491669 M 861.357090569692 924.0952475135567 L 777.9426276342763 910.0892944449427 M 861.357090569692 924.0952475135567 L 920 884.1007757702974 M 777.5109223327743 896.759754655388 L 777.9426276342763 910.0892944449427 M 861.357090569692 924.0952475135567 L 852.4281407873946 1000 M 94.33201382790978 917.2749583462481 L 185.3807280114975 917.1887877609628 M 777.9426276342763 910.0892944449427 L 773.4717517060608 919.7211768343342 M 629.3302002049454 912.9666456663884 L 655.6905028013323 917.3739744516832 M 629.3302002049454 912.9666456663884 L 575.4515384976488 1000 M 530.4349065363706 945.1509447671325 L 463.3875023746735 944.2799865491669 M 94.33201382790978 917.2749583462481 L 68.24830733921448 950.3673129948497 M 239.57822202516928 904.4357065082083 L 295.8871174556226 956.5616252669624 M 239.57822202516928 904.4357065082083 L 187.52027723695224 918.4599949486868 M 655.6905028013323 917.3739744516832 L 700.4196965763746 960.9045512212783 M 773.4717517060608 919.7211768343342 L 700.4196965763746 960.9045512212783 M 773.4717517060608 919.7211768343342 L 814.90372752739 1000 M 530.4349065363706 945.1509447671325 L 565.5451621909014 1000 M 461.6438130577405 946.5385998746376 L 381.541270151422 954.0787206855429 M 363.8971414016964 937.4559088354524 L 295.8871174556226 956.5616252669624 M 68.24830733921448 950.3673129948497 L 0 945.7797995000749 M 185.3807280114975 917.1887877609628 L 187.52027723695224 918.4599949486868 M 463.3875023746735 944.2799865491669 L 461.6438130577405 946.5385998746376 M 363.8971414016964 937.4559088354524 L 381.541270151422 954.0787206855429 M 187.52027723695224 918.4599949486868 L 180.6036367366918 1000 M 461.6438130577405 946.5385998746376 L 468.9230209658174 1000 M 68.24830733921448 950.3673129948497 L 81.84147755742516 1000 M 381.541270151422 954.0787206855429 L 385.16596649369285 1000 M 295.8871174556226 956.5616252669624 L 289.22447954792085 1000 M 700.4196965763746 960.9045512212783 L 698.1695401093453 1000 M 0 945.7797995000749 L 0 1000 M 0 1000 L 81.84147755742516 1000 M 289.22447954792085 1000 L 385.16596649369285 1000 M 385.16596649369285 1000 L 468.9230209658174 1000 M 698.1695401093453 1000 L 814.90372752739 1000 M 180.6036367366918 1000 L 289.22447954792085 1000 M 468.9230209658174 1000 L 565.5451621909014 1000 M 575.4515384976488 1000 L 698.1695401093453 1000 M 81.84147755742516 1000 L 180.6036367366918 1000 M 852.4281407873946 1000 L 920 1000 M 920 1000 L 920 884.1007757702974 M 814.90372752739 1000 L 852.4281407873946 1000 M 565.5451621909014 1000 L 575.4515384976488 1000 M 0 880.7412568491708 L 0 945.7797995000749 M 920 884.1007757702974 L 920 863.5389129974799 M 0 807.0032245699769 L 0 880.7412568491708 M 920 863.5389129974799 L 920 749.9186805434421 M 0 704.1195470829007 L 0 807.0032245699769 M 920 749.9186805434421 L 920 645.2013378001618 M -3.552713678800501e-15 573.6822820648491 L 0 704.1195470829007 M 920 645.2013378001618 L 920 555.1512549852139 M -1.4210854715202004e-14 547.5660940554835 L 0 573.6822820648491 M 920 555.1512549852139 L 920 471.85125399990164 M 0 510.2463228362047 L 0 547.5660940554835 M 0 378.48330584422 L 0 510.2463228362047 M 920 471.85125399990164 L 920 356.2828318515423 M 0 370.62137095741605 L 0 378.48330584422 M 0 220.81620768991334 L 0 370.62137095741605 M 920 356.2828318515423 L 920 249.63007871930472 M 0 141.1687190425542 L 0 220.81620768991334 M 920 249.63007871930472 L 920 120.12986103486192 M 920 120.12986103486192 L 920 72.7199645557856 M 752.4956122447512 0 L 705.9782207354456 0 M 590.6167336869643 0 L 515.4652573935169 0 M 213.8870546759079 0 L 143.53340243092336 0 M 68.67732652283576 0 L 0 0 M 0 0 L 0 141.1687190425542 M 312.4578730947996 0 L 213.8870546759079 0 M 143.53340243092336 0 L 68.67732652283576 0 M 920 72.7199645557856 L 920 0 M 920 0 L 874.2254485979054 0 M 705.9782207354456 0 L 590.6167336869643 0 M 515.4652573935169 0 L 406.57319324680816 0 M 406.57319324680816 0 L 312.4578730947996 0 M 874.2254485979054 0 L 752.4956122447512 0 " stroke="black" stroke-width="2"/></g><g id="svg_g_seeds"><circle id="c_0" cx="714.7416178852325" cy="405.43028855650107" r="3" stroke="black" stroke-width="2" fill="#1F7BFD"/><circle id="c_1" cx="124.77356669797638" cy="969.9228907936639" r="3" stroke="black" stroke-width="2" fill="#1F7BFD"/><circle id="c_2" cx="158.9994906398627" cy="45.68213978053337" r="3" stroke="black" stroke-width="2" fill="#1F7BFD"/><circle id="c_3" cx="713.9078279750748" cy="894.7004951598371" r="3" stroke="black" stroke-width="2" fill="#1F7BFD"/><circle id="c_4" cx="257.07906027095567" cy="600.3353173263797" r="3" stroke="black" stroke-width="2" fill="#1F7BFD"/><circle id="c_5" cx="350.1537101837466" cy="267.7307893796015" r="3" stroke="black" stroke-width="2" fill="#1F7BFD"/><circle id="c_6" cx="427.46041888540725" cy="988.4513416320564" r="3" stroke="black" stroke-width="2" fill="#1F7BFD"/><circle id="c_7" cx="873.2437770100287" cy="77.524890317759" r="3" stroke="black" stroke-width="2" fill="#1F7BFD"/><circle id="c_8" cx="469.98551851712386" cy="573.3583026058546" r="3" stroke="black" stroke-width="2" fill="#1F7BFD"/><circle id="c_9" cx="111.85341304924042" cy="443.41225715346735" r="3" stroke="black" stroke-width="2" fill="#1F7BFD"/><circle id="c_10" cx="747.7172619178205" cy="634.6844097770323" r="3" stroke="black" stroke-width="2" fill="#1F7BFD"/><circle id="c_11" cx="610.5092656960701" cy="102.25805218551743" r="3" stroke="black" stroke-width="2" fill="#1F7BFD"/><circle id="c_12" cx="381.6280224434576" cy="767.4702114909096" r="3" stroke="black" stroke-width="2" fill="#1F7BFD"/><circle id="c_13" cx="86.74468373160391" cy="752.4429504182208" r="3" stroke="black" stroke-width="2" fill="#1F7BFD"/><circle id="c_14" cx="80.91975537427389" cy="224.45716080452073" r="3" stroke="black" stroke-width="2" fill="#1F7BFD"/><circle id="c_15" cx="74.6493524705239" cy="573.8289378935286" r="3" stroke="black" stroke-width="2" fill="#1F7BFD"/><circle id="c_16" cx="875.8488648699807" cy="792.4930020777987" r="3" stroke="black" stroke-width="2" fill="#1F7BFD"/><circle id="c_17" cx="868.3815160607596" cy="293.79403890623814" r="3" stroke="black" stroke-width="2" fill="#1F7BFD"/><circle id="c_18" cx="542.0085251896403" cy="816.1761549443938" r="3" stroke="black" stroke-width="2" fill="#1F7BFD"/><circle id="c_19" cx="555.9270738435657" cy="257.39049866960914" r="3" stroke="black" stroke-width="2" fill="#1F7BFD"/><circle id="c_20" cx="372.2447396556511" cy="70.28897568305403" r="3" stroke="black" stroke-width="2" fill="#1F7BFD"/><circle id="c_21" cx="252.1606352045217" cy="385.28777360207255" r="3" stroke="black" stroke-width="2" fill="#1F7BFD"/><circle id="c_22" cx="314.761809597154" cy="899.7537866076633" r="3" stroke="black" stroke-width="2" fill="#1F7BFD"/><circle id="c_23" cx="558.1407170977659" cy="423.7394984134284" r="3" stroke="black" stroke-width="2" fill="#1F7BFD"/><circle id="c_24" cx="623.1415643389633" cy="669.8076304230148" r="3" stroke="black" stroke-width="2" fill="#1F7BFD"/><circle id="c_25" cx="900.06649841368" cy="597.1831919887218" r="3" stroke="black" stroke-width="2" fill="#1F7BFD"/><circle id="c_26" cx="766.0938417015398" cy="142.36655236805552" r="3" stroke="black" stroke-width="2" fill="#1F7BFD"/><circle id="c_27" cx="202.7135276347363" cy="838.7433437736454" r="3" stroke="black" stroke-width="2" fill="#1F7BFD"/><circle id="c_28" cx="885.0629613867633" cy="955.4213590056495" r="3" stroke="black" stroke-width="2" fill="#1F7BFD"/><circle id="c_29" cx="399.233681337385" cy="365.9403668183039" r="3" stroke="black" stroke-width="2" fill="#1F7BFD"/><circle id="c_30" cx="757.7973030171877" cy="281.00174835462144" r="3" stroke="black" stroke-width="2" fill="#1F7BFD"/><circle id="c_31" cx="299.13709634408707" cy="122.70099737673124" r="3" stroke="black" stroke-width="2" fill="#1F7BFD"/><circle id="c_32" cx="518.234734182411" cy="132.83991648041905" r="3" stroke="black" stroke-width="2" fill="#1F7BFD"/><circle id="c_33" cx="240.70215438406188" cy="979.7565468527109" r="3" stroke="black" stroke-width="2" fill="#1F7BFD"/><circle id="c_34" cx="713.7555466421195" cy="59.44496716080483" r="3" stroke="black" stroke-width="2" fill="#1F7BFD"/><circle id="c_35" cx="854.1509196142267" cy="420.69320238748566" r="3" stroke="black" stroke-width="2" fill="#1F7BFD"/><circle id="c_36" cx="634.6063414180976" cy="976.1855528385006" r="3" stroke="black" stroke-width="2" fill="#1F7BFD"/><circle id="c_37" cx="458.07603308489786" cy="11.182415920662825" r="3" stroke="black" stroke-width="2" fill="#1F7BFD"/><circle id="c_38" cx="591.9436875299716" cy="529.2862848840039" r="3" stroke="black" stroke-width="2" fill="#1F7BFD"/><circle id="c_39" cx="37.353632211038914" cy="31.21564950099365" r="3" stroke="black" stroke-width="2" fill="#1F7BFD"/><circle id="c_40" cx="359.04196998785494" cy="448.6483242238699" r="3" stroke="black" stroke-width="2" fill="#1F7BFD"/><circle id="c_41" cx="764.0452582973948" cy="983.6354690052062" r="3" stroke="black" stroke-width="2" fill="#1F7BFD"/><circle id="c_42" cx="284.6903304575962" cy="694.6153636224408" r="3" stroke="black" stroke-width="2" fill="#1F7BFD"/><circle id="c_43" cx="199.41896350097534" cy="179.23033756967754" r="3" stroke="black" stroke-width="2" fill="#1F7BFD"/><circle id="c_44" cx="154.7468811855728" cy="367.6809184616754" r="3" stroke="black" stroke-width="2" fill="#1F7BFD"/><circle id="c_45" cx="36.02959775266577" cy="899.9740562912151" r="3" stroke="black" stroke-width="2" fill="#1F7BFD"/><circle id="c_46" cx="279.5336579565076" cy="28.10740220046504" r="3" stroke="black" stroke-width="2" fill="#1F7BFD"/><circle id="c_47" cx="11.107477125265408" cy="765.9149561562068" r="3" stroke="black" stroke-width="2" fill="#1F7BFD"/><circle id="c_48" cx="824.1676278522659" cy="600.6604565021247" r="3" stroke="black" stroke-width="2" fill="#1F7BFD"/><circle id="c_49" cx="209.5362874291797" cy="703.8232488327247" r="3" stroke="black" stroke-width="2" fill="#1F7BFD"/><circle id="c_50" cx="733.6992652554666" cy="769.2177530740909" r="3" stroke="black" stroke-width="2" fill="#1F7BFD"/><circle id="c_51" cx="456.1299475202356" cy="859.3430451761825" r="3" stroke="black" stroke-width="2" fill="#1F7BFD"/><circle id="c_52" cx="518.8072133482947" cy="652.2729723076195" r="3" stroke="black" stroke-width="2" fill="#1F7BFD"/><circle id="c_53" cx="625.1493848576506" cy="329.11625084323725" r="3" stroke="black" stroke-width="2" fill="#1F7BFD"/><circle id="c_54" cx="476.35945139014734" cy="479.9957753189683" r="3" stroke="black" stroke-width="2" fill="#1F7BFD"/><circle id="c_55" cx="259.55010107751883" cy="484.11502877242384" r="3" stroke="black" stroke-width="2" fill="#1F7BFD"/><circle id="c_56" cx="369.94731446019" cy="599.7813253817757" r="3" stroke="black" stroke-width="2" fill="#1F7BFD"/><circle id="c_57" cx="548.5650931050588" cy="48.19720291092233" r="3" stroke="black" stroke-width="2" fill="#1F7BFD"/><circle id="c_58" cx="124.67385783876549" cy="864.5694991019761" r="3" stroke="black" stroke-width="2" fill="#1F7BFD"/><circle id="c_59" cx="744.1091060167237" cy="517.3215699131335" r="3" stroke="black" stroke-width="2" fill="#1F7BFD"/><circle id="c_60" cx="832.7955697475868" cy="716.7993296629222" r="3" stroke="black" stroke-width="2" fill="#1F7BFD"/><circle id="c_61" cx="423.59458723719024" cy="250.21545415392853" r="3" stroke="black" stroke-width="2" fill="#1F7BFD"/><circle id="c_62" cx="368.69471084474" cy="668.6627849883744" r="3" stroke="black" stroke-width="2" fill="#1F7BFD"/><circle id="c_63" cx="840.8474795743974" cy="890.5892864135914" r="3" stroke="black" stroke-width="2" fill="#1F7BFD"/><circle id="c_64" cx="76.25984998440703" cy="390.8245796313039" r="3" stroke="black" stroke-width="2" fill="#1F7BFD"/><circle id="c_65" cx="27.94338888197215" cy="296.8453492555392" r="3" stroke="black" stroke-width="2" fill="#1F7BFD"/><circle id="c_66" cx="349.7035385917909" cy="832.0781794397967" r="3" stroke="black" stroke-width="2" fill="#1F7BFD"/><circle id="c_67" cx="918.030222201745" cy="25.75879255921487" r="3" stroke="black" stroke-width="2" fill="#1F7BFD"/><circle id="c_68" cx="646.414988273932" cy="450.2685091052381" r="3" stroke="black" stroke-width="2" fill="#1F7BFD"/><circle id="c_69" cx="21.55838303667018" cy="645.1510406453982" r="3" stroke="black" stroke-width="2" fill="#1F7BFD"/><circle id="c_70" cx="324.45206171826305" cy="543.9136661862829" r="3" stroke="black" stroke-width="2" fill="#1F7BFD"/><circle id="c_71" cx="570.3911168599632" cy="936.4326283773363" r="3" stroke="black" stroke-width="2" fill="#1F7BFD"/><circle id="c_72" cx="358.50846040353866" cy="193.46219147385767" r="3" stroke="black" stroke-width="2" fill="#1F7BFD"/><circle id="c_73" cx="566.8100571987529" cy="178.18948479118225" r="3" stroke="black" stroke-width="2" fill="#1F7BFD"/><circle id="c_74" cx="505.7886035036429" cy="977.7863171553054" r="3" stroke="black" stroke-width="2" fill="#1F7BFD"/><circle id="c_75" cx="247.51906639971116" cy="294.6065418926669" r="3" stroke="black" stroke-width="2" fill="#1F7BFD"/><circle id="c_76" cx="29.575238987218675" cy="995.9953674445261" r="3" stroke="black" stroke-width="2" fill="#1F7BFD"/><circle id="c_77" cx="341.583424872917" cy="995.2298554437195" r="3" stroke="black" stroke-width="2" fill="#1F7BFD"/><circle id="c_78" cx="437.12547036720184" cy="720.1875588416691" r="3" stroke="black" stroke-width="2" fill="#1F7BFD"/><circle id="c_79" cx="128.36774748510774" cy="114.67907250672171" r="3" stroke="black" stroke-width="2" fill="#1F7BFD"/><circle id="c_80" cx="909.5149435741126" cy="182.51087986141746" r="3" stroke="black" stroke-width="2" fill="#1F7BFD"/><circle id="c_81" cx="168.76803539223565" cy="547.9801191261466" r="3" stroke="black" stroke-width="2" fill="#1F7BFD"/><circle id="c_82" cx="29.778430351301488" cy="449.76525898907084" r="3" stroke="black" stroke-width="2" fill="#1F7BFD"/><circle id="c_83" cx="654.8843557568811" cy="854.9024310056808" r="3" stroke="black" stroke-width="2" fill="#1F7BFD"/><circle id="c_84" cx="479.96918377764774" cy="357.51429015370337" r="3" stroke="black" stroke-width="2" fill="#1F7BFD"/><circle id="c_85" cx="174.43840209462724" cy="770.7212367003566" r="3" stroke="black" stroke-width="2" fill="#1F7BFD"/><circle id="c_86" cx="133.67714252337038" cy="637.6241141554973" r="3" stroke="black" stroke-width="2" fill="#1F7BFD"/><circle id="c_87" cx="19.482167048556125" cy="844.8458858984625" r="3" stroke="black" stroke-width="2" fill="#1F7BFD"/><circle id="c_88" cx="696.4411645957754" cy="706.9172279237707" r="3" stroke="black" stroke-width="2" fill="#1F7BFD"/><circle id="c_89" cx="648.7587223693901" cy="220.93102699255041" r="3" stroke="black" stroke-width="2" fill="#1F7BFD"/><circle id="c_90" cx="909.3820377769337" cy="436.63565386904367" r="3" stroke="black" stroke-width="2" fill="#1F7BFD"/><circle id="c_91" cx="524.2845750629408" cy="752.7101515948465" r="3" stroke="black" stroke-width="2" fill="#1F7BFD"/><circle id="c_92" cx="506.64465600894056" cy="911.8863725627906" r="3" stroke="black" stroke-width="2" fill="#1F7BFD"/><circle id="c_93" cx="155.40326276300064" cy="310.75301011595127" r="3" stroke="black" stroke-width="2" fill="#1F7BFD"/><circle id="c_94" cx="512.7820606153042" cy="305.335279057789" r="3" stroke="black" stroke-width="2" fill="#1F7BFD"/><circle id="c_95" cx="791.9422564508286" cy="834.7812845458611" r="3" stroke="black" stroke-width="2" fill="#1F7BFD"/><circle id="c_96" cx="354.71525764276015" cy="9.39911975118024" r="3" stroke="black" stroke-width="2" fill="#1F7BFD"/><circle id="c_97" cx="274.1578090037478" cy="216.8499575817786" r="3" stroke="black" stroke-width="2" fill="#1F7BFD"/><circle id="c_98" cx="831.028917823693" cy="949.065139589806" r="3" stroke="black" stroke-width="2" fill="#1F7BFD"/><circle id="c_99" cx="452.0723774999361" cy="631.7491847645522" r="3" stroke="black" stroke-width="2" fill="#1F7BFD"/><circle id="c_100" cx="673.4118828015977" cy="123.84550591821375" r="3" stroke="black" stroke-width="2" fill="#1F7BFD"/><circle id="c_101" cx="680.2626099140056" cy="587.537226338443" r="3" stroke="black" stroke-width="2" fill="#1F7BFD"/><circle id="c_102" cx="127.97832621630315" cy="705.0184826994224" r="3" stroke="black" stroke-width="2" fill="#1F7BFD"/><circle id="c_103" cx="316.98493227529093" cy="331.1039857584515" r="3" stroke="black" stroke-width="2" fill="#1F7BFD"/><circle id="c_104" cx="919.8394413475837" cy="508.6324154180255" r="3" stroke="black" stroke-width="2" fill="#1F7BFD"/><circle id="c_105" cx="823.4325197236844" cy="1.5658738680504047" r="3" stroke="black" stroke-width="2" fill="#1F7BFD"/><circle id="c_106" cx="650.4520954368251" cy="22.60620110345135" r="3" stroke="black" stroke-width="2" fill="#1F7BFD"/><circle id="c_107" cx="775.0551346692736" cy="415.08259585661153" r="3" stroke="black" stroke-width="2" fill="#1F7BFD"/><circle id="c_108" cx="103.63083468211731" cy="27.089534260795745" r="3" stroke="black" stroke-width="2" fill="#1F7BFD"/><circle id="c_109" cx="445.05685167118776" cy="316.7766260045228" r="3" stroke="black" stroke-width="2" fill="#1F7BFD"/><circle id="c_110" cx="778.8520980071617" cy="759.6233778390111" r="3" stroke="black" stroke-width="2" fill="#1F7BFD"/><circle id="c_111" cx="396.9805640366741" cy="521.5109620261413" r="3" stroke="black" stroke-width="2" fill="#1F7BFD"/><circle id="c_112" cx="420.2396073245367" cy="911.7409834854693" r="3" stroke="black" stroke-width="2" fill="#1F7BFD"/><circle id="c_113" cx="898.4245026467007" cy="692.504453200929" r="3" stroke="black" stroke-width="2" fill="#1F7BFD"/><circle id="c_114" cx="837.4687537408823" cy="174.43202924013912" r="3" stroke="black" stroke-width="2" fill="#1F7BFD"/><circle id="c_115" cx="801.29449935355" cy="487.15337693559934" r="3" stroke="black" stroke-width="2" fill="#1F7BFD"/><circle id="c_116" cx="569.4084618968319" cy="368.2578142609505" r="3" stroke="black" stroke-width="2" fill="#1F7BFD"/><circle id="c_117" cx="67.27391522975255" cy="505.8949635165826" r="3" stroke="black" stroke-width="2" fill="#1F7BFD"/><circle id="c_118" cx="425.72266859124414" cy="192.511263785913" r="3" stroke="black" stroke-width="2" fill="#1F7BFD"/><circle id="c_119" cx="126.76100223301046" cy="185.13243844802153" r="3" stroke="black" stroke-width="2" fill="#1F7BFD"/></g></svg>
