<svg id="main_svg" xmlns="http://www.w3.org/2000/svg" width="100%" height="100%"><g id="svg_g_bezier_cells"><path d="M 428.91077639707026 0 L 429.5049768363458 9.675345199620182 L 550.2273744943866 112.66989010091149 L 608.9817353495482 106.21101922762494 L 662.7160113823022 57.25874513294874 L 665.2540745797108 0 L 428.91077639707026 0 Z" fill="#221155" fill-opacity="0.2"/><path d="M 662.7160113823024 57.258745132948945 L 796.5485836263035 92.80193116288193 L 837.3164397240336 0 L 665.254074579711 0 L 662.7160113823024 57.258745132948945 Z" fill="#221155" fill-opacity="0.2"/><path d="M 120.61274046967547 0 L 160.26430100034474 112.55890155640043 L 304.30752226842026 162.3749668087055 L 429.504976836346 9.675345199620294 L 428.9107763970704 0 L 120.61274046967547 0 Z" fill="#221155" fill-opacity="0.2"/><path d="M 796.5485836263032 92.80193116288204 L 819.9625909750116 161.67547954921102 L 920 164.71263750640585 L 920 0 L 837.3164397240333 0 L 796.5485836263032 92.80193116288204 Z" fill="#221155" fill-opacity="0.2"/><path d="M 0 193.26284661524363 L 90.32093085446927 201.04959793190721 L 160.26430100034474 112.55890155640047 L 120.6127404696755 0 L 0 0 L 0 193.26284661524363 Z" fill="#221155" fill-opacity="0.2"/><path d="M 608.981735349548 106.21101922762506 L 724.2322357580618 263.561125258838 L 752.203330758877 268.2471798326443 L 819.9625909750115 161.67547954921062 L 796.5485836263035 92.80193116288196 L 662.7160113823021 57.25874513294888 L 608.981735349548 106.21101922762506 Z" fill="#221155" fill-opacity="0.2"/><path d="M 304.30752226842026 162.37496680870547 L 316.7205094794991 198.45010057103383 L 500.1352377624654 287.93393067372267 L 550.2273744943868 112.66989010091164 L 429.50497683634586 9.675345199620262 L 304.30752226842026 162.37496680870547 Z" fill="#221155" fill-opacity="0.2"/><path d="M 500.1352377624656 287.9339306737223 L 522.8242367981729 336.90936995863365 L 724.2322357580612 263.5611252588374 L 608.9817353495481 106.21101922762497 L 550.2273744943869 112.66989010091147 L 500.1352377624656 287.9339306737223 Z" fill="#221155" fill-opacity="0.2"/><path d="M 752.2033307588773 268.24717983264406 L 778.2801979642526 313.68135109651166 L 919.9999999999998 353.4671009178358 L 920 164.71263750640597 L 819.9625909750113 161.6754795492111 L 752.2033307588773 268.24717983264406 Z" fill="#221155" fill-opacity="0.2"/><path d="M 90.32093085446925 201.0495979319073 L 106.07587805270244 338.51629483654784 L 121.6436596270036 351.4952575737704 L 259.1184876091925 347.72540174800645 L 316.7205094794989 198.4501005710337 L 304.3075222684202 162.3749668087055 L 160.26430100034477 112.55890155640049 L 90.32093085446925 201.0495979319073 Z" fill="#221155" fill-opacity="0.2"/><path d="M 0 361.6743860299478 L 106.07587805270246 338.5162948365478 L 90.32093085446922 201.04959793190724 L 0 193.26284661524363 L 0 361.6743860299478 Z" fill="#221155" fill-opacity="0.2"/><path d="M 259.1184876091925 347.7254017480068 L 319.2056681356449 431.64973957823975 L 519.2735199142842 356.074217548972 L 522.8242367981721 336.9093699586317 L 500.13523776246615 287.933930673723 L 316.720509479499 198.45010057103372 L 259.1184876091925 347.7254017480068 Z" fill="#221155" fill-opacity="0.2"/><path d="M 519.2735199142841 356.07421754896995 L 572.3944595707762 480.0000000000001 L 732.8804831221273 480.00000000000006 L 778.2801979642531 313.6813510965114 L 752.2033307588785 268.24717983264435 L 724.232235758061 263.56112525883776 L 522.8242367981716 336.9093699586342 L 519.2735199142841 356.07421754896995 Z" fill="#221155" fill-opacity="0.2"/><path d="M 920.0000000000003 353.4671009178365 L 778.2801979642528 313.68135109651223 L 732.8804831221271 480.00000000000017 L 920.0000000000003 480.00000000000017 L 920.0000000000003 353.4671009178365 Z" fill="#221155" fill-opacity="0.2"/><path d="M 116.71751258724274 480 L 121.64365962700374 351.49525757377074 L 106.07587805270212 338.5162948365479 L 0 361.67438602994764 L 0 480 L 116.71751258724274 480 Z" fill="#221155" fill-opacity="0.2"/><path d="M 312.2041817707021 480.0000000000001 L 319.20566813564477 431.64973957823975 L 259.11848760919224 347.72540174800645 L 121.64365962700374 351.49525757377023 L 116.71751258724271 480.00000000000017 L 312.2041817707021 480.0000000000001 Z" fill="#221155" fill-opacity="0.2"/><path d="M 572.3944595707761 480 L 519.2735199142849 356.0742175489715 L 319.20566813564494 431.64973957823963 L 312.2041817707024 480.00000000000006 L 572.3944595707761 480 Z" fill="#221155" fill-opacity="0.2"/></g><g id="svg_g_edges"><path id="svg_path_edges" d="M 662.7160113823022 57.25874513294888 L 665.2540745797108 0 M 429.5049768363459 9.675345199620171 L 428.9107763970704 0 M 796.5485836263032 92.80193116288186 L 837.3164397240333 0 M 160.26430100034474 112.55890155640043 L 120.61274046967549 0 M 662.7160113823022 57.25874513294888 L 796.5485836263032 92.80193116288186 M 662.7160113823022 57.25874513294888 L 608.9817353495481 106.21101922762503 M 429.5049768363459 9.675345199620171 L 550.2273744943868 112.66989010091157 M 429.5049768363459 9.675345199620171 L 304.30752226842014 162.37496680870547 M 796.5485836263032 92.80193116288186 L 819.9625909750116 161.67547954921102 M 608.9817353495481 106.21101922762503 L 724.2322357580614 263.5611252588373 M 608.9817353495481 106.21101922762503 L 550.2273744943868 112.66989010091157 M 550.2273744943868 112.66989010091157 L 500.13523776246547 287.9339306737226 M 819.9625909750116 161.67547954921102 L 920 164.71263750640588 M 160.26430100034474 112.55890155640043 L 304.30752226842014 162.37496680870547 M 160.26430100034474 112.55890155640043 L 90.32093085446922 201.04959793190724 M 819.9625909750116 161.67547954921102 L 752.2033307588777 268.2471798326437 M 90.32093085446922 201.04959793190724 L 0 193.26284661524363 M 304.30752226842014 162.37496680870547 L 316.72050947949896 198.4501005710336 M 90.32093085446922 201.04959793190724 L 106.07587805270244 338.51629483654773 M 316.72050947949896 198.4501005710336 L 500.13523776246547 287.9339306737226 M 316.72050947949896 198.4501005710336 L 259.11848760919247 347.72540174800656 M 724.2322357580614 263.5611252588373 L 522.8242367981726 336.90936995863353 M 724.2322357580614 263.5611252588373 L 752.2033307588777 268.2471798326437 M 752.2033307588777 268.2471798326437 L 778.2801979642531 313.681351096512 M 500.13523776246547 287.9339306737226 L 522.8242367981726 336.90936995863353 M 778.2801979642531 313.681351096512 L 920 353.4671009178361 M 106.07587805270244 338.51629483654773 L 0 361.67438602994764 M 778.2801979642531 313.681351096512 L 732.8804831221273 480 M 259.11848760919247 347.72540174800656 L 121.64365962700373 351.4952575737704 M 106.07587805270244 338.51629483654773 L 121.64365962700373 351.4952575737704 M 259.11848760919247 347.72540174800656 L 319.20566813564506 431.6497395782398 M 121.64365962700373 351.4952575737704 L 116.7175125872427 480 M 519.2735199142847 356.0742175489716 L 319.20566813564506 431.6497395782398 M 522.8242367981726 336.90936995863353 L 519.2735199142847 356.0742175489716 M 519.2735199142847 356.0742175489716 L 572.3944595707761 480 M 319.20566813564506 431.6497395782398 L 312.20418177070235 480 M 312.20418177070235 480 L 572.3944595707761 480 M 116.7175125872427 480 L 312.20418177070235 480 M 0 361.67438602994764 L 0 480 M 0 480 L 116.7175125872427 480 M 732.8804831221273 480 L 920 480 M 920 480 L 920 353.4671009178361 M 572.3944595707761 480 L 732.8804831221273 480 M 0 193.26284661524363 L 0 361.67438602994764 M 920 353.4671009178361 L 920 164.71263750640588 M 120.61274046967549 0 L 0 0 M 0 0 L 0 193.26284661524363 M 920 164.71263750640588 L 920 0 M 920 0 L 837.3164397240333 0 M 428.9107763970704 0 L 120.61274046967549 0 M 837.3164397240333 0 L 665.2540745797108 0 M 665.2540745797108 0 L 428.9107763970704 0 " stroke="black" stroke-width="2"/></g><g id="svg_g_seeds"><circle id="c_0" cx="893.2943246053445" cy="75.85936620656582" r="3" stroke="black" stroke-width="2" fill="#1F7BFD"/><circle id="c_1" cx="37.789672851793725" cy="439.59896705079836" r="3" stroke="black" stroke-width="2" fill="#1F7BFD"/><circle id="c_2" cx="273.0448142638911" cy="22.361262880281885" r="3" stroke="black" stroke-width="2" fill="#1F7BFD"/><circle id="c_3" cx="669.5115989762536" cy="377.1564068122436" r="3" stroke="black" stroke-width="2" fill="#1F7BFD"/><circle id="c_4" cx="430.9440955845072" cy="479.4186616959737" r="3" stroke="black" stroke-width="2" fill="#1F7BFD"/><circle id="c_5" cx="193.2251622252256" cy="253.15989665263274" r="3" stroke="black" stroke-width="2" fill="#1F7BFD"/><circle id="c_6" cx="586.3416716444773" cy="3.1204888884155935" r="3" stroke="black" stroke-width="2" fill="#1F7BFD"/><circle id="c_7" cx="447.73303206139" cy="165.58702847676344" r="3" stroke="black" stroke-width="2" fill="#1F7BFD"/><circle id="c_8" cx="609.2771956639871" cy="211.75789333288554" r="3" stroke="black" stroke-width="2" fill="#1F7BFD"/><circle id="c_9" cx="887.9532691261115" cy="251.78217270250218" r="3" stroke="black" stroke-width="2" fill="#1F7BFD"/><circle id="c_10" cx="371.4546069705775" cy="321.93467917330617" r="3" stroke="black" stroke-width="2" fill="#1F7BFD"/><circle id="c_11" cx="839.7134203207746" cy="423.6161045406422" r="3" stroke="black" stroke-width="2" fill="#1F7BFD"/><circle id="c_12" cx="1.8747764824644975" cy="275.0904099450998" r="3" stroke="black" stroke-width="2" fill="#1F7BFD"/><circle id="c_13" cx="15.85206310410074" cy="112.9635502129436" r="3" stroke="black" stroke-width="2" fill="#1F7BFD"/><circle id="c_14" cx="743.5808929612836" cy="10.090307732450157" r="3" stroke="black" stroke-width="2" fill="#1F7BFD"/><circle id="c_15" cx="198.50667044630632" cy="445.75995027205175" r="3" stroke="black" stroke-width="2" fill="#1F7BFD"/><circle id="c_16" cx="709.5220120689236" cy="138.33395009298243" r="3" stroke="black" stroke-width="2" fill="#1F7BFD"/></g></svg>