<svg id="main_svg" xmlns="http://www.w3.org/2000/svg" width="100%" height="100%"><g id="svg_g_bezier_cells"><path d="M 804.1385503724395 0 L 812.630063070334 131.7066405360372 L 919.9999999999999 135.02190243026075 L 920 0 L 804.1385503724395 0 Z" fill="#221155" fillOpacity="0.2"/><path d="M 612.7992966202027 0 L 616.3124983027986 130.63593265377597 L 655.8741303365521 182.01288113898767 L 769.2240807141343 168.51699880027195 L 812.6300630703339 131.7066405360369 L 804.1385503724396 0 L 612.7992966202027 0 Z" fill="#221155" fillOpacity="0.2"/><path d="M 426.0127510979816 0 L 447.57522999773306 86.82274995905495 L 616.3124983027985 130.6359326537758 L 612.7992966202027 0 L 426.0127510979816 0 Z" fill="#221155" fillOpacity="0.2"/><path d="M 88.87062476226981 0 L 113.84838320757834 162.47609950095273 L 256.3278534555273 105.80631646959748 L 261.8528522127231 0 L 88.87062476226981 0 Z" fill="#221155" fillOpacity="0.2"/><path d="M 256.3278534555274 105.80631646959752 L 338.3529636952923 183.58532947611096 L 370.66443414234357 184.94685736071145 L 447.5752299977331 86.82274995905493 L 426.01275109798166 0 L 261.8528522127231 0 L 256.3278534555274 105.80631646959752 Z" fill="#221155" fillOpacity="0.2"/><path d="M 0 182.9197826036148 L 101.08114631117544 184.16808817657395 L 113.84838320757835 162.4760995009527 L 88.87062476226981 0 L 0 0 L 0 182.9197826036148 Z" fill="#221155" fillOpacity="0.2"/><path d="M 370.6644341423433 184.94685736071185 L 436.1925159784282 270.1045864974152 L 591.08569599987 289.24447745289007 L 655.8741303365523 182.01288113898784 L 616.3124983027985 130.63593265377577 L 447.575229997733 86.82274995905492 L 370.6644341423433 184.94685736071185 Z" fill="#221155" fillOpacity="0.2"/><path d="M 101.08114631117542 184.16808817657383 L 154.1777392307977 305.787233235505 L 221.00663787618112 314.475359634898 L 338.35296369529283 183.58532947611133 L 256.3278534555273 105.80631646959746 L 113.84838320757824 162.47609950095276 L 101.08114631117542 184.16808817657383 Z" fill="#221155" fillOpacity="0.2"/><path d="M 769.2240807141346 168.51699880027158 L 834.0078236374304 333.6970319770744 L 919.9999999999999 372.11059459940185 L 920 135.0219024302608 L 812.6300630703332 131.70664053603718 L 769.2240807141346 168.51699880027158 Z" fill="#221155" fillOpacity="0.2"/><path d="M 0 374.05535084983603 L 96.07508174505384 373.62155725091293 L 154.17773923079764 305.78723323550497 L 101.08114631117543 184.16808817657395 L 0 182.91978260361478 L 0 374.05535084983603 Z" fill="#221155" fillOpacity="0.2"/><path d="M 221.00663787618123 314.4753596348979 L 339.82586696257715 443.19140440118275 L 436.19251597842816 270.1045864974153 L 370.6644341423431 184.9468573607118 L 338.352963695293 183.58532947611133 L 221.00663787618123 314.4753596348979 Z" fill="#221155" fillOpacity="0.2"/><path d="M 591.0856959998698 289.24447745288995 L 602.0942370259244 364.6693670858744 L 753.7358245040427 406.72771352784355 L 834.0078236374302 333.69703197707423 L 769.2240807141347 168.5169988002718 L 655.8741303365521 182.0128811389875 L 591.0856959998698 289.24447745288995 Z" fill="#221155" fillOpacity="0.2"/><path d="M 339.8258669625763 443.1914044011843 L 347.9096525454521 479.99999999999983 L 555.694768015706 479.99999999999994 L 602.0942370259244 364.6693670858747 L 591.0856959998698 289.24447745289 L 436.19251597842845 270.10458649741526 L 339.8258669625763 443.1914044011843 Z" fill="#221155" fillOpacity="0.2"/><path d="M 96.07508174505381 373.6215572509128 L 118.37043521052728 480.00000000000006 L 347.909652545453 480.00000000000006 L 339.8258669625766 443.1914044011821 L 221.00663787618126 314.4753596348979 L 154.1777392307976 305.78723323550497 L 96.07508174505381 373.6215572509128 Z" fill="#221155" fillOpacity="0.2"/><path d="M 753.7358245040418 406.72771352784434 L 770.4563238781833 480.0000000000002 L 920.0000000000002 480.0000000000002 L 920.0000000000003 372.1105945994023 L 834.0078236374303 333.6970319770745 L 753.7358245040418 406.72771352784434 Z" fill="#221155" fillOpacity="0.2"/><path d="M 770.4563238781839 479.9999999999999 L 753.7358245040425 406.7277135278435 L 602.0942370259246 364.66936708587446 L 555.6947680157061 479.99999999999983 L 770.4563238781839 479.9999999999999 Z" fill="#221155" fillOpacity="0.2"/><path d="M 118.37043521052726 480.00000000000006 L 96.07508174505381 373.6215572509129 L 0 374.05535084983615 L 0 480 L 118.37043521052726 480.00000000000006 Z" fill="#221155" fillOpacity="0.2"/></g><g id="svg_g_edges"><path id="svg_path_edges" d="M 804.1385503724395 0 L 812.6300630703339 131.7066405360372 M 612.7992966202027 0 L 616.3124983027985 130.6359326537758 M 426.01275109798166 0 L 447.57522999773306 86.82274995905495 M 261.85285221272306 0 L 256.3278534555273 105.80631646959743 M 113.84838320757835 162.4760995009527 L 88.87062476226981 0 M 447.57522999773306 86.82274995905495 L 616.3124983027985 130.6359326537758 M 447.57522999773306 86.82274995905495 L 370.6644341423433 184.94685736071187 M 256.3278534555273 105.80631646959743 L 113.84838320757835 162.4760995009527 M 256.3278534555273 105.80631646959743 L 338.35296369529283 183.58532947611135 M 812.6300630703339 131.7066405360372 L 920 135.02190243026075 M 616.3124983027985 130.6359326537758 L 655.8741303365523 182.01288113898767 M 113.84838320757835 162.4760995009527 L 101.08114631117544 184.16808817657395 M 101.08114631117544 184.16808817657395 L 0 182.9197826036148 M 812.6300630703339 131.7066405360372 L 769.2240807141347 168.5169988002719 M 338.35296369529283 183.58532947611135 L 221.00663787618117 314.47535963489787 M 338.35296369529283 183.58532947611135 L 370.6644341423433 184.94685736071187 M 370.6644341423433 184.94685736071187 L 436.1925159784284 270.1045864974153 M 101.08114631117544 184.16808817657395 L 154.1777392307976 305.7872332355049 M 769.2240807141347 168.5169988002719 L 655.8741303365523 182.01288113898767 M 769.2240807141347 168.5169988002719 L 834.0078236374304 333.6970319770743 M 655.8741303365523 182.01288113898767 L 591.0856959998698 289.2444774528901 M 436.1925159784284 270.1045864974153 L 591.0856959998698 289.2444774528901 M 436.1925159784284 270.1045864974153 L 339.8258669625771 443.1914044011827 M 221.00663787618117 314.47535963489787 L 154.1777392307976 305.7872332355049 M 221.00663787618117 314.47535963489787 L 339.8258669625771 443.1914044011827 M 834.0078236374304 333.6970319770743 L 753.735824504043 406.72771352784355 M 834.0078236374304 333.6970319770743 L 920 372.11059459940185 M 154.1777392307976 305.7872332355049 L 96.0750817450538 373.6215572509129 M 591.0856959998698 289.2444774528901 L 602.0942370259244 364.6693670858744 M 753.735824504043 406.72771352784355 L 602.0942370259244 364.6693670858744 M 96.0750817450538 373.6215572509129 L 0 374.05535084983615 M 753.735824504043 406.72771352784355 L 770.4563238781843 480 M 96.0750817450538 373.6215572509129 L 118.37043521052723 480 M 602.0942370259244 364.6693670858744 L 555.6947680157058 480 M 339.8258669625771 443.1914044011827 L 347.90965254545335 480 M 0 374.05535084983615 L 0 480 M 0 480 L 118.37043521052723 480 M 555.6947680157058 480 L 770.4563238781843 480 M 770.4563238781843 480 L 920 480 M 920 480 L 920 372.11059459940185 M 118.37043521052723 480 L 347.90965254545335 480 M 347.90965254545335 480 L 555.6947680157058 480 M 0 182.9197826036148 L 0 374.05535084983615 M 920 372.11059459940185 L 920 135.02190243026075 M 88.87062476226981 0 L 0 0 M 0 0 L 0 182.9197826036148 M 426.01275109798166 0 L 261.85285221272306 0 M 261.85285221272306 0 L 88.87062476226981 0 M 612.7992966202027 0 L 426.01275109798166 0 M 804.1385503724395 0 L 612.7992966202027 0 M 920 135.02190243026075 L 920 0 M 920 0 L 804.1385503724395 0 " stroke="black" strokeWidth="2"/></g><g id="svg_g_seeds"><circle id="c_0" cx="465.11197791978185" cy="369.18885146095613" r="3" stroke="black" strokeWidth="2" fill="#1F7BFD"/><circle id="c_1" cx="904.2545473581984" cy="263.3306909950219" r="3" stroke="black" strokeWidth="2" fill="#1F7BFD"/><circle id="c_2" cx="29.138244960174127" cy="82.28652917524371" r="3" stroke="black" strokeWidth="2" fill="#1F7BFD"/><circle id="c_3" cx="346.34245249153815" cy="69.72434116510297" r="3" stroke="black" strokeWidth="2" fill="#1F7BFD"/><circle id="c_4" cx="195.06035397343126" cy="428.4967220486614" r="3" stroke="black" strokeWidth="2" fill="#1F7BFD"/><circle id="c_5" cx="697.7398707106858" cy="19.81302820803389" r="3" stroke="black" strokeWidth="2" fill="#1F7BFD"/><circle id="c_6" cx="734.6538565365373" cy="329.84821943045563" r="3" stroke="black" strokeWidth="2" fill="#1F7BFD"/><circle id="c_7" cx="26.64418891433046" cy="284.24192338259434" r="3" stroke="black" strokeWidth="2" fill="#1F7BFD"/><circle id="c_8" cx="170.5608226647212" cy="60.54536850320073" r="3" stroke="black" strokeWidth="2" fill="#1F7BFD"/><circle id="c_9" cx="697.7804890352235" cy="462.7953382925425" r="3" stroke="black" strokeWidth="2" fill="#1F7BFD"/><circle id="c_10" cx="27.45412858968267" cy="463.62451618979674" r="3" stroke="black" strokeWidth="2" fill="#1F7BFD"/><circle id="c_11" cx="488.3611860925294" cy="181.04024626593628" r="3" stroke="black" strokeWidth="2" fill="#1F7BFD"/><circle id="c_12" cx="529.0463943881513" cy="24.349714193428014" r="3" stroke="black" strokeWidth="2" fill="#1F7BFD"/><circle id="c_13" cx="225.07690544813644" cy="197.6099941199362" r="3" stroke="black" strokeWidth="2" fill="#1F7BFD"/><circle id="c_14" cx="912.2005765613332" cy="5.986118649651431" r="3" stroke="black" strokeWidth="2" fill="#1F7BFD"/><circle id="c_15" cx="336.73548046400026" cy="297.71481882212305" r="3" stroke="black" strokeWidth="2" fill="#1F7BFD"/><circle id="c_16" cx="828.4743408752713" cy="432.97142296097934" r="3" stroke="black" strokeWidth="2" fill="#1F7BFD"/></g></svg>
